<svg xmlns="http://www.w3.org/2000/svg" xmlns:xlink="http://www.w3.org/1999/xlink" xmlns:lucid="lucid" width="1884.21" height="1455.98"><g transform="translate(0 0)" lucid:page-tab-id="0_0"><path d="M0 0h1884.2v1455.98H0z" fill="#fff"/><path d="M606.45 155.04l.47 1176.98" fill="none"/><path d="M606.45 155.04v5.03m0 5.03v10.06m0 5.03v10.05m0 5.03l.02 10.06m0 5.03v10.06m0 5.03v10.06m0 5.03v10.06m.02 5.04v10.06m0 5.03v10.06m0 5.02v10.06m0 5.03v10.07m0 5.03v10.06m.02 5.03v10.05m0 5.03v10.06m0 5.03v10.06m0 5.03l.02 10.06m0 5.03v10.05m0 5.03v10.06m0 5.02l.02 10.06m0 5.03v10.07m0 5.03v10.06m0 5.03l.02 10.05m0 5.03v10.06m0 5.03v10.06m0 5.03v10.06m.02 5.03v10.06m0 5.04v10.06m0 5.03v10.06m0 5.02l.02 10.06m0 5.03v10.07m0 5.03v10.06m0 5.03l.02 10.05m0 5.03v10.06m0 5.03v10.06m0 5.03v10.05m.02 5.04v10.06m0 5.03v10.06m0 5.02v10.06m0 5.03l.02 10.07m0 5.03v10.06m0 5.03v10.05m0 5.03l.02 10.06m0 5.03v10.06m0 5.03v10.06m0 5.03V824m.02 5.04v10.06m0 5.03v10.06m0 5.02v10.06m.02 5.03v10.07m0 5.03v10.06m0 5.03v10.05m0 5.03l.02 10.06m0 5.02v10.06m0 5.03v10.06m0 5.04l.02 10.06m0 5.03V990m0 5.02v10.06m0 5.03v10.07m.02 5.03v10.06m0 5.03v10.05m0 5.03v10.06m0 5.03l.02 10.06m0 5.03v10.06m0 5.03v10.06m0 5.04l.02 10.06m0 5.03v10.06m0 5.02v10.06m0 5.03v10.07m.02 5.03v10.06m0 5.03v10.05m0 5.02v10.06m.02 5.03v10.06m0 5.03v10.06m0 5.04v10.06m0 5.03l.02 10.06m0 5.02v10.06m0 5.03v10.07m0 5.03l.02 10.06m0 5.03v5.02M606.45 155.06v-3.52M606.92 1332v3.52" stroke="#333" fill="none"/><path d="M587.98 275.73c0-4.42 3.58-8 8-8h24c4.42 0 8 3.58 8 8v893.9c0 4.42-3.58 8-8 8h-24c-4.42 0-8-3.58-8-8z" stroke="#f2f2f2" fill="#d2d3d5"/><path d="M1104.1 216.5v1123.8" fill="none"/><path d="M1104.1 216.5v5m0 5v9.98m0 5v10m0 4.98v10m0 5v9.97m0 5v10m0 4.98v10m0 5v10m0 4.98v10m0 4.98v10m0 5v9.98m0 5v9.98m0 5v10m0 4.98v10m0 4.98v10m0 5v9.98m0 5v9.98m0 5v10m0 4.98v10m0 4.98v10m0 5v9.98m0 5v9.98m0 5v10m0 4.98v10m0 4.98v10m0 5v9.98m0 5v9.98m0 5v10m0 4.98v10m0 4.98v10m0 5V671m0 5V686m0 5v9.98m0 5v10m0 4.98v10m0 5v9.98m0 5v9.98m0 5v9.98m0 5v10m0 4.98v10m0 5v9.98m0 5v9.98m0 5v9.98m0 5v10m0 4.98v10m0 5v9.98m0 5v9.98m0 5v9.98m0 5v10m0 4.98v10m0 5v9.98m0 5v9.98m0 5v9.98m0 5v10m0 4.98v10m0 5v9.98m0 5v9.98m0 5v9.98m0 5v10m0 4.98v10m0 5v9.97m0 5v10m0 4.98v10m0 5v10m0 4.98v10m0 5v9.97m0 5v10m0 4.98v10m0 5v9.98m0 5v10m0 4.98v10m0 5v9.98m0 5v9.98m0 5v10m0 4.98v10m0 4.98v5" stroke="#333" fill="none"/><path d="M1104.6 216.52h-1V216h1z" fill="#333"/><path d="M1104.1 1340.3v.5" stroke="#333" fill="none"/><path d="M563.62 1305.98c0-4.42 3.58-8 8-8h70.58c4.42 0 8 3.58 8 8v64c0 4.4-3.58 8-8 8h-70.58c-4.42 0-8-3.6-8-8z" fill="none"/><path d="M572.28 1305.98l69.26 64m0-64l-69.26 64" stroke="#666" stroke-width="8" fill="none"/><path d="M1084.1 335.4c0-4.42 3.58-8 8-8h24c4.42 0 8 3.58 8 8v68.97c0 4.42-3.58 8-8 8h-24c-4.42 0-8-3.58-8-8z" stroke="#f2f2f2" fill="#d2d3d5"/><path d="M628.98 337.73h438.24" stroke="#333" fill="none"/><path d="M629 338.23h-.52v-1h.52zM1081.98 337.73l-14.26 4.64v-9.27z" fill="#333"/><path d="M1083.6 337.73l-16.38 5.33V332.4zm-15.38 3.95l12.14-3.95-12.14-3.94z" fill="#333"/><use xlink:href="#a" transform="matrix(1,0,0,1,803.6716987979521,315.0662167373069) translate(0 12.444444444444446)"/><path d="M1009.06 86c0-4.4 3.6-8 8-8h174.08c4.42 0 8 3.6 8 8v122c0 4.42-3.58 8-8 8h-174.08c-4.4 0-8-3.58-8-8z" stroke="#000" stroke-opacity="0" fill="#ffcc78"/><use xlink:href="#b" transform="matrix(1,0,0,1,1017.0635133462325,86.0042271682712) translate(44.78703703703704 54.77777777777777)"/><use xlink:href="#c" transform="matrix(1,0,0,1,1017.0635133462325,86.0042271682712) translate(24.99691358024692 73.44444444444444)"/><path d="M1084 408.02H644.86" fill="none"/><path d="M1084 408.02h-5.07m-5.05 0h-10.1m-5.07 0h-10.1m-5.05 0h-10.12m-5.05 0h-10.1m-5.07 0h-10.1m-5.06 0h-10.1m-5.06 0h-10.1m-5.07 0h-10.1m-5.06 0h-10.1m-5.06 0h-10.1m-5.07 0h-10.1m-5.06 0h-10.1m-5.06 0h-10.12m-5.05 0h-10.1m-5.06 0h-10.1m-5.04 0h-10.07m-5.04 0H821.2m-5.04 0H806.1m-5.04 0H791m-5.05 0h-10.08m-5.04 0h-10.08m-5.03 0h-10.08m-5.04 0h-10.08m-5.04 0H715.4m-5.03 0H700.3m-5.05 0h-10.07m-5.04 0h-10.08m-5.04 0h-10.08m-5.03 0h-5.03" stroke="#333" fill="none"/><path d="M1084.26 407.68l.57.84h-.85v-1h.25zM644.37 412.66l-14.27-4.64 14.27-4.63z" fill="#333"/><path d="M644.87 413.34l-16.4-5.32 16.4-5.32zm-13.15-5.32l12.15 3.95v-7.9z" fill="#333"/><use xlink:href="#d" transform="matrix(1,0,0,1,795.9063661041198,412.02115710150633) translate(0.005000000000002558 12.444444444444446)"/><path d="M628.98 479.75h438.24" stroke="#333" fill="none"/><path d="M629 480.25h-.52v-1h.52z" fill="#333"/><path d="M1081.98 479.75l-14.26 4.64v-9.28z" stroke="#333" fill="#333"/><use xlink:href="#e" transform="matrix(1,0,0,1,782.0451555880755,457.0876507022387) translate(0.0049999999999954525 12.444444444444446)"/><path d="M1083.38 606.22h-438.5" fill="none"/><path d="M1083.38 606.22h-5.05m-5.05 0h-10.1m-5.05 0h-10.1m-5.05 0h-10.1m-5.04 0h-10.1m-5.05 0h-10.1m-5.05 0h-10.1m-5.05 0h-10.1m-5.05 0h-10.1m-5.04 0H942m-5.04 0h-10.1m-5.05 0h-10.08m-5.05 0h-10.1m-5.05 0h-10.1m-5.05 0h-10.1m-5.04 0h-10.08m-5.03 0h-10.07m-5.03 0h-10.06m-5.03 0h-10.06m-5.03 0h-10.07m-5.03 0h-10.06m-5.03 0H760.6m-5.05 0H745.5m-5.04 0H730.4m-5.03 0H715.3m-5.03 0H700.2m-5.02 0h-10.06m-5.03 0H670m-5.03 0h-10.07m-5.03 0h-5.03" stroke="#333" fill="none"/><path d="M1083.98 606.72h-.62v-1h.4zM644.37 610.85l-14.27-4.63 14.27-4.64z" fill="#333"/><path d="M644.87 611.54l-16.4-5.32 16.4-5.33zm-13.15-5.32l12.15 3.94v-7.9z" fill="#333"/><use xlink:href="#f" transform="matrix(1,0,0,1,786.3087573686346,610.2166184465475) translate(0.0049999999999954525 12.444444444444446)"/><path d="M471.05 677.3c0-4.4 3.58-8 8-8h84c4.42 0 8 3.6 8 8v4.93c0 3.9-2.24 9.3-5 12.08-2.76 2.77-8.16 5-12.07 5h-74.93c-4.42 0-8-3.58-8-8z" fill="#ffe6be"/><path d="M571.05 669.3v20l-10 10h-90" stroke="#333" fill="none"/><path d="M471.05 677.3c0-4.4 3.58-8 8-8h840.46c4.43 0 8 3.6 8 8v168.6c0 4.4-3.57 8-8 8H479.06c-4.42 0-8-3.6-8-8zM471.05 807.74h20m15 0h20m15 0h20m15 0h20m15 0h20m15 0h20m15 0h20m15 0h20m15 0h20m15 0h20m15 0h20m15 0h20m15 0h20m15 0h20m15 0h20m15 0h20m15 0h20m15 0h20m15 0h20m15 0h20m15 0h20m15 0h20m15 0h20m15 0h20m15 0h16.46" stroke="#333" fill="none"/><use xlink:href="#g" transform="matrix(1,0,0,1,479.0524665198141,669.3058576289798) translate(0.9012345679012341 18.11111111111111)"/><use xlink:href="#h" transform="matrix(1,0,0,1,483.0524665198141,707.3058576289798) translate(5.8549382716049365 18.11111111111111)"/><use xlink:href="#i" transform="matrix(1,0,0,1,483.0524665198141,707.3058576289798) translate(67.99074074074073 18.11111111111111)"/><use xlink:href="#j" transform="matrix(1,0,0,1,483.0524665198141,707.3058576289798) translate(118.07098765432099 18.11111111111111)"/><use xlink:href="#k" transform="matrix(1,0,0,1,483.0524665198141,707.3058576289798) translate(151.77469135802468 18.11111111111111)"/><use xlink:href="#l" transform="matrix(1,0,0,1,483.0524665198141,707.3058576289798) translate(180.16358024691357 18.11111111111111)"/><use xlink:href="#m" transform="matrix(1,0,0,1,483.0524665198141,707.3058576289798) translate(250.07716049382717 18.11111111111111)"/><use xlink:href="#h" transform="matrix(1,0,0,1,483.0524665198141,815.740396265425) translate(12.163580246913568 18.11111111111111)"/><use xlink:href="#n" transform="matrix(1,0,0,1,483.0524665198141,815.740396265425) translate(74.29938271604937 18.11111111111111)"/><use xlink:href="#o" transform="matrix(1,0,0,1,483.0524665198141,815.740396265425) translate(114.83024691358024 18.11111111111111)"/><use xlink:href="#l" transform="matrix(1,0,0,1,483.0524665198141,815.740396265425) translate(152.85493827160494 18.11111111111111)"/><use xlink:href="#m" transform="matrix(1,0,0,1,483.0524665198141,815.740396265425) translate(222.76851851851853 18.11111111111111)"/><path d="M1084.1 463.2c0-4.43 3.58-8 8-8h24c4.42 0 8 3.57 8 8v141.6c0 4.43-3.58 8-8 8h-24c-4.42 0-8-3.57-8-8z" stroke="#fff" fill="#d2d3d5"/><path d="M628.98 744.3h34.5c2.76 0 5 2.24 5 5v25.6c0 2.75-2.24 5-5 5h-18.6" stroke="#333" fill="none"/><path d="M629 744.8h-.52v-1h.52zM644.37 784.52l-14.27-4.63 14.27-4.65z" fill="#333"/><path d="M644.87 785.2l-16.4-5.3 16.4-5.34zm-13.15-5.3l12.15 3.93v-7.9z" fill="#333"/><use xlink:href="#p" transform="matrix(1,0,0,1,676.483005925489,752.760435097484) translate(0.0049999999999954525 12.444444444444446)"/><path d="M628.98 884.68h34.5c2.76 0 5 2.24 5 5v38.75c0 2.76-2.24 5-5 5h-18.6" stroke="#333" fill="none"/><path d="M629 885.18h-.52v-1h.52zM644.37 938.06l-14.27-4.63 14.27-4.64z" fill="#333"/><path d="M644.87 938.75l-16.4-5.32 16.4-5.33zm-13.15-5.32l12.15 3.94v-7.9z" fill="#333"/><use xlink:href="#q" transform="matrix(1,0,0,1,676.4830059254889,899.7221547729181) translate(0.0049999999999954525 12.444444444444446)"/><path d="M1092 992.93c0-4.42 3.57-8 8-8h24c4.4 0 8 3.58 8 8v168.58c0 4.43-3.6 8-8 8h-24c-4.43 0-8-3.57-8-8z" stroke="#f2f2f2" fill="#d2d3d5"/><path d="M628.98 992.12h446.27" stroke="#333" fill="none"/><path d="M629 992.62h-.52v-1h.52zM1090.02 992.12l-14.27 4.64v-9.27z" fill="#333"/><path d="M1091.64 992.12l-16.4 5.33V986.8zm-15.4 3.95l12.16-3.95-12.15-3.94z" fill="#333"/><use xlink:href="#r" transform="matrix(1,0,0,1,795.0078383453252,969.4566544085344) translate(0.0049999999999954525 12.444444444444446)"/><path d="M1133 1091.84h34.5c2.75 0 5 2.24 5 5v39.62c0 2.76-2.25 5-5 5h-18.63" stroke="#333" fill="none"/><path d="M1133 1092.34h-.5v-1h.5zM1148.37 1146.1l-14.27-4.64 14.27-4.63z" fill="#333"/><path d="M1148.87 1146.78l-16.38-5.32 16.37-5.32zm-13.15-5.32l12.15 3.95v-7.9z" fill="#333"/><use xlink:href="#s" transform="matrix(1,0,0,1,1180.4852632959328,1107.317577425702) translate(0.0049999999999954525 12.444444444444446)"/><path d="M1091.04 1161.82H644.88" fill="none"/><path d="M1091.04 1161.82h-5.14m-5.13 0h-10.27m-5.13 0h-10.27m-5.13 0h-10.27m-5.13 0h-10.27m-5.14 0h-10.26m-5.14 0H993.5m-5.14 0H978.1m-5.14 0H962.7m-5.14 0H947.3m-5.15 0H931.9m-5.15 0h-10.27m-5.13 0h-10.27m-5.13 0h-10.27m-5.13 0h-10.27m-5.14 0H854.9m-5.13 0h-10.25m-5.12 0h-10.25m-5.12 0H808.8m-5.14 0h-10.24m-5.12 0h-10.25m-5.12 0h-10.25m-5.12 0h-10.24m-5.13 0h-10.25m-5.12 0h-10.25m-5.12 0H701.2m-5.1 0h-10.25m-5.12 0h-10.25m-5.12 0H655.1m-5.1 0h-5.13" stroke="#333" fill="none"/><path d="M1091.5 1161.56l.14.76h-.6v-1h.45zM644.37 1166.46l-14.27-4.64 14.27-4.63z" fill="#333"/><path d="M644.87 1167.15l-16.4-5.33 16.4-5.32zm-13.15-5.33l12.15 3.95v-7.9z" fill="#333"/><use xlink:href="#t" transform="matrix(1,0,0,1,735.9121609137504,1165.8226463497683) translate(0.0049999999999954525 12.444444444444446)"/><path d="M1498.8 577.72h135.6l24.4 24.4v97.6h-160z" stroke="#333" fill="#ffe6be"/><path d="M1634.4 578.2v23.92h23.93" stroke="#333" fill="#ffe6be"/><use xlink:href="#u" transform="matrix(1,0,0,1,1503.803302563045,582.7166483293372) translate(37.910493827160494 15.975694444444446)"/><use xlink:href="#v" transform="matrix(1,0,0,1,1503.803302563045,582.7166483293372) translate(1.2623456790123413 34.642361111111114)"/><use xlink:href="#w" transform="matrix(1,0,0,1,1503.803302563045,582.7166483293372) translate(92.65123456790123 34.642361111111114)"/><use xlink:href="#x" transform="matrix(1,0,0,1,1503.803302563045,582.7166483293372) translate(115.89814814814814 34.642361111111114)"/><use xlink:href="#y" transform="matrix(1,0,0,1,1503.803302563045,582.7166483293372) translate(5.151234567901227 53.309027777777786)"/><use xlink:href="#z" transform="matrix(1,0,0,1,1503.803302563045,582.7166483293372) translate(60.28703703703703 53.309027777777786)"/><use xlink:href="#A" transform="matrix(1,0,0,1,1503.803302563045,582.7166483293372) translate(82.71296296296296 53.309027777777786)"/><use xlink:href="#B" transform="matrix(1,0,0,1,1503.803302563045,582.7166483293372) translate(126.74382716049384 53.309027777777786)"/><use xlink:href="#C" transform="matrix(1,0,0,1,1503.803302563045,582.7166483293372) translate(9.537037037037038 71.97569444444446)"/><use xlink:href="#D" transform="matrix(1,0,0,1,1503.803302563045,582.7166483293372) translate(32.78395061728395 71.97569444444446)"/><use xlink:href="#E" transform="matrix(1,0,0,1,1503.803302563045,582.7166483293372) translate(89.64814814814815 71.97569444444446)"/><use xlink:href="#z" transform="matrix(1,0,0,1,1503.803302563045,582.7166483293372) translate(2.5802469135802397 90.64236111111113)"/><use xlink:href="#F" transform="matrix(1,0,0,1,1503.803302563045,582.7166483293372) translate(25.006172839506167 90.64236111111113)"/><use xlink:href="#G" transform="matrix(1,0,0,1,1503.803302563045,582.7166483293372) translate(75 90.64236111111113)"/><use xlink:href="#H" transform="matrix(1,0,0,1,1503.803302563045,582.7166483293372) translate(93.10493827160494 90.64236111111113)"/><use xlink:href="#I" transform="matrix(1,0,0,1,1503.803302563045,582.7166483293372) translate(120.67283950617285 90.64236111111113)"/><use xlink:href="#J" transform="matrix(1,0,0,1,1503.803302563045,582.7166483293372) translate(57.71604938271605 109.3090277777778)"/><path d="M1133 1004.1h34.5c2.75 0 5 2.24 5 5v41.18c0 2.77-2.25 5-5 5h-18.63" stroke="#333" fill="none"/><path d="M1133 1004.6h-.5v-1h.5zM1148.37 1059.92l-14.27-4.64 14.27-4.63z" fill="#333"/><path d="M1148.87 1060.6l-16.38-5.32 16.37-5.32zm-13.15-5.32l12.15 3.95v-7.9z" fill="#333"/><g><use xlink:href="#K" transform="matrix(1,0,0,1,1180.4852632959328,1020.3608857682517) translate(0.0049999999999954525 12.444444444444446)"/></g><path d="M623.97 101.63c0 8.83-7.16 16-16 16-8.82 0-15.97-7.17-15.97-16s7.15-15.98 15.98-15.98 16 7.15 16 15.98z" stroke="#333" fill="#ffe6be"/><path d="M607.98 117.62v36.75c0 4.42 2.3 10.76 5.12 14.15l37.5 45m-42.62-51.15l-42.6 51.16m0-79.93h85.22" stroke="#333" fill="none"/><path d="M565.37 93.65c0-4.42 3.58-8 8-8h69.23c4.42 0 8 3.58 8 8v133.88c0 4.4-3.58 8-8 8h-69.23c-4.42 0-8-3.6-8-8z" fill="none"/><g><use xlink:href="#L" transform="matrix(1,0,0,1,485.3650188838594,213.52623325990706) translate(105.73765432098764 14.11111111111111)"/></g><defs><path fill="#333" d="M195-6C206 82 75 100 31 46c-4-6-6-13-8-21l49-6c3 16 16 24 34 25 40 0 42-37 40-79-11 22-30 35-61 35-53 0-70-43-70-97 0-56 18-96 73-97 30 0 46 14 59 34l2-30h47zm-90-29c32 0 41-27 41-63 0-35-9-62-40-62-32 0-39 29-40 63 0 36 9 62 39 62" id="M"/><path fill="#333" d="M185-48c-13 30-37 53-82 52C43 2 14-33 14-96s30-98 90-98c62 0 83 45 84 108H66c0 31 8 55 39 56 18 0 30-7 34-22zm-45-69c5-46-57-63-70-21-2 6-4 13-4 21h74" id="N"/><path fill="#333" d="M115-3C79 11 28 4 28-45v-112H4v-33h27l15-45h31v45h36v33H77v99c-1 23 16 31 38 25v30" id="O"/><path fill="#333" d="M67-93c0 74 22 123 53 168H70C40 30 18-18 18-93s22-123 52-168h50c-32 44-53 94-53 168" id="P"/><path fill="#333" d="M135-150c-39-12-60 13-60 57V0H25l-1-190h47c2 13-1 29 3 40 6-28 27-53 61-41v41" id="Q"/><path fill="#333" d="M135-194c53 0 70 44 70 98 0 56-19 98-73 100-31 1-45-17-59-34 3 33 2 69 2 105H25l-1-265h48c2 10 0 23 3 31 11-24 29-35 60-35zM114-30c33 0 39-31 40-66 0-38-9-64-40-64-56 0-55 130 0 130" id="R"/><path fill="#333" d="M110-194c64 0 96 36 96 99 0 64-35 99-97 99-61 0-95-36-95-99 0-62 34-99 96-99zm-1 164c35 0 45-28 45-65 0-40-10-65-43-65-34 0-45 26-45 65 0 36 10 65 43 65" id="S"/><path fill="#333" d="M136-208V0H84v-208H4v-40h212v40h-80" id="T"/><path fill="#333" d="M133-34C117-15 103 5 69 4 32 3 11-16 11-54c-1-60 55-63 116-61 1-26-3-47-28-47-18 1-26 9-28 27l-52-2c7-38 36-58 82-57s74 22 75 68l1 82c-1 14 12 18 25 15v27c-30 8-71 5-69-32zm-48 3c29 0 43-24 42-57-32 0-66-3-65 30 0 17 8 27 23 27" id="U"/><path fill="#333" d="M135-194c52 0 70 43 70 98 0 56-19 99-73 100-30 1-46-15-58-35L72 0H24l1-261h50v104c11-23 29-37 60-37zM114-30c31 0 40-27 40-66 0-37-7-63-39-63s-41 28-41 65c0 36 8 64 40 64" id="V"/><path fill="#333" d="M102-93c0 74-22 123-52 168H0C30 29 54-18 53-93c0-74-22-123-53-168h50c30 45 52 94 52 168" id="W"/><g id="a"><use transform="matrix(0.04320987654320988,0,0,0.04320987654320988,0,0)" xlink:href="#M"/><use transform="matrix(0.04320987654320988,0,0,0.04320987654320988,9.462962962962964,0)" xlink:href="#N"/><use transform="matrix(0.04320987654320988,0,0,0.04320987654320988,18.10493827160494,0)" xlink:href="#O"/><use transform="matrix(0.04320987654320988,0,0,0.04320987654320988,23.246913580246915,0)" xlink:href="#P"/><use transform="matrix(0.04320987654320988,0,0,0.04320987654320988,28.388888888888886,0)" xlink:href="#Q"/><use transform="matrix(0.04320987654320988,0,0,0.04320987654320988,34.43827160493827,0)" xlink:href="#N"/><use transform="matrix(0.04320987654320988,0,0,0.04320987654320988,43.08024691358025,0)" xlink:href="#R"/><use transform="matrix(0.04320987654320988,0,0,0.04320987654320988,52.54320987654321,0)" xlink:href="#S"/><use transform="matrix(0.04320987654320988,0,0,0.04320987654320988,62.00617283950617,0)" xlink:href="#Q"/><use transform="matrix(0.04320987654320988,0,0,0.04320987654320988,68.05555555555556,0)" xlink:href="#O"/><use transform="matrix(0.04320987654320988,0,0,0.04320987654320988,73.19753086419753,0)" xlink:href="#T"/><use transform="matrix(0.04320987654320988,0,0,0.04320987654320988,81.49382716049382,0)" xlink:href="#U"/><use transform="matrix(0.04320987654320988,0,0,0.04320987654320988,90.1358024691358,0)" xlink:href="#V"/><use transform="matrix(0.04320987654320988,0,0,0.04320987654320988,99.59876543209876,0)" xlink:href="#W"/></g><path fill="#333" d="M169-182c-1-43-94-46-97-3 18 66 151 10 154 114 3 95-165 93-204 36-6-8-10-19-12-30l50-8c3 46 112 56 116 5-17-69-150-10-154-114-4-87 153-88 188-35 5 8 8 18 10 28" id="X"/><path fill="#333" d="M121-226c-27-7-43 5-38 36h38v33H83V0H34v-157H6v-33h28c-9-59 32-81 87-68v32" id="Y"/><path fill="#333" d="M137-138c1-29-70-34-71-4 15 46 118 7 119 86 1 83-164 76-172 9l43-7c4 19 20 25 44 25 33 8 57-30 24-41C81-84 22-81 20-136c-2-80 154-74 161-7" id="Z"/><g id="b"><use transform="matrix(0.04320987654320988,0,0,0.04320987654320988,0,0)" xlink:href="#X"/><use transform="matrix(0.04320987654320988,0,0,0.04320987654320988,10.370370370370372,0)" xlink:href="#U"/><use transform="matrix(0.04320987654320988,0,0,0.04320987654320988,19.01234567901235,0)" xlink:href="#Y"/><use transform="matrix(0.04320987654320988,0,0,0.04320987654320988,24.154320987654323,0)" xlink:href="#N"/><use transform="matrix(0.04320987654320988,0,0,0.04320987654320988,32.7962962962963,0)" xlink:href="#X"/><use transform="matrix(0.04320987654320988,0,0,0.04320987654320988,43.16666666666667,0)" xlink:href="#O"/><use transform="matrix(0.04320987654320988,0,0,0.04320987654320988,48.308641975308646,0)" xlink:href="#Q"/><use transform="matrix(0.04320987654320988,0,0,0.04320987654320988,54.35802469135802,0)" xlink:href="#N"/><use transform="matrix(0.04320987654320988,0,0,0.04320987654320988,63,0)" xlink:href="#N"/><use transform="matrix(0.04320987654320988,0,0,0.04320987654320988,71.64197530864197,0)" xlink:href="#O"/><use transform="matrix(0.04320987654320988,0,0,0.04320987654320988,76.78395061728395,0)" xlink:href="#Z"/></g><path fill="#333" d="M240-174c0 40-23 61-54 70L253 0h-59l-57-94H76V0H24v-248c93 4 217-23 216 74zM76-134c48-2 112 12 112-38 0-48-66-32-112-35v73" id="aa"/><path fill="#333" d="M190-63c-7 42-38 67-86 67-59 0-84-38-90-98-12-110 154-137 174-36l-49 2c-2-19-15-32-35-32-30 0-35 28-38 64-6 74 65 87 74 30" id="ab"/><path fill="#333" d="M25-224v-37h50v37H25zM25 0v-190h50V0H25" id="ac"/><path fill="#333" d="M128 0H69L1-190h53L99-40l48-150h52" id="ad"/><g id="c"><use transform="matrix(0.04320987654320988,0,0,0.04320987654320988,0,0)" xlink:href="#P"/><use transform="matrix(0.04320987654320988,0,0,0.04320987654320988,5.1419753086419755,0)" xlink:href="#aa"/><use transform="matrix(0.04320987654320988,0,0,0.04320987654320988,16.333333333333336,0)" xlink:href="#N"/><use transform="matrix(0.04320987654320988,0,0,0.04320987654320988,24.97530864197531,0)" xlink:href="#R"/><use transform="matrix(0.04320987654320988,0,0,0.04320987654320988,34.43827160493827,0)" xlink:href="#S"/><use transform="matrix(0.04320987654320988,0,0,0.04320987654320988,43.901234567901234,0)" xlink:href="#Q"/><use transform="matrix(0.04320987654320988,0,0,0.04320987654320988,49.95061728395062,0)" xlink:href="#O"/><use transform="matrix(0.04320987654320988,0,0,0.04320987654320988,55.092592592592595,0)" xlink:href="#aa"/><use transform="matrix(0.04320987654320988,0,0,0.04320987654320988,66.28395061728395,0)" xlink:href="#N"/><use transform="matrix(0.04320987654320988,0,0,0.04320987654320988,74.92592592592592,0)" xlink:href="#ab"/><use transform="matrix(0.04320987654320988,0,0,0.04320987654320988,83.5679012345679,0)" xlink:href="#N"/><use transform="matrix(0.04320987654320988,0,0,0.04320987654320988,92.20987654320987,0)" xlink:href="#ac"/><use transform="matrix(0.04320987654320988,0,0,0.04320987654320988,96.53086419753086,0)" xlink:href="#ad"/><use transform="matrix(0.04320987654320988,0,0,0.04320987654320988,105.17283950617283,0)" xlink:href="#N"/><use transform="matrix(0.04320987654320988,0,0,0.04320987654320988,113.81481481481481,0)" xlink:href="#Q"/><use transform="matrix(0.04320987654320988,0,0,0.04320987654320988,119.86419753086419,0)" xlink:href="#W"/></g><path fill="#333" d="M114-157C55-157 80-60 75 0H25v-261h50l-1 109c12-26 28-41 61-42 86-1 58 113 63 194h-50c-7-57 23-157-34-157" id="ae"/><path fill="#333" d="M231 0h-52l-39-155L100 0H48L-1-190h46L77-45c9-52 24-97 36-145h53l37 145 32-145h46" id="af"/><g id="d"><use transform="matrix(0.04320987654320988,0,0,0.04320987654320988,0,0)" xlink:href="#Z"/><use transform="matrix(0.04320987654320988,0,0,0.04320987654320988,8.641975308641976,0)" xlink:href="#ae"/><use transform="matrix(0.04320987654320988,0,0,0.04320987654320988,18.10493827160494,0)" xlink:href="#S"/><use transform="matrix(0.04320987654320988,0,0,0.04320987654320988,27.567901234567906,0)" xlink:href="#af"/><use transform="matrix(0.04320987654320988,0,0,0.04320987654320988,39.66666666666667,0)" xlink:href="#P"/><use transform="matrix(0.04320987654320988,0,0,0.04320987654320988,44.808641975308646,0)" xlink:href="#Q"/><use transform="matrix(0.04320987654320988,0,0,0.04320987654320988,50.85802469135803,0)" xlink:href="#N"/><use transform="matrix(0.04320987654320988,0,0,0.04320987654320988,59.49999999999999,0)" xlink:href="#R"/><use transform="matrix(0.04320987654320988,0,0,0.04320987654320988,68.96296296296296,0)" xlink:href="#S"/><use transform="matrix(0.04320987654320988,0,0,0.04320987654320988,78.42592592592592,0)" xlink:href="#Q"/><use transform="matrix(0.04320987654320988,0,0,0.04320987654320988,84.4753086419753,0)" xlink:href="#O"/><use transform="matrix(0.04320987654320988,0,0,0.04320987654320988,89.61728395061728,0)" xlink:href="#T"/><use transform="matrix(0.04320987654320988,0,0,0.04320987654320988,97.91358024691357,0)" xlink:href="#U"/><use transform="matrix(0.04320987654320988,0,0,0.04320987654320988,106.55555555555554,0)" xlink:href="#V"/><use transform="matrix(0.04320987654320988,0,0,0.04320987654320988,116.0185185185185,0)" xlink:href="#W"/></g><path fill="#333" d="M85 4C-2 5 27-109 22-190h50c7 57-23 150 33 157 60-5 35-97 40-157h50l1 190h-47c-2-12 1-28-3-38-12 25-28 42-61 42" id="ag"/><path fill="#333" d="M25 0v-261h50V0H25" id="ah"/><path fill="#333" d="M88-194c31-1 46 15 58 34l-1-101h50l1 261h-48c-2-10 0-23-3-31C134-8 116 4 84 4 32 4 16-41 15-95c0-56 19-97 73-99zm17 164c33 0 40-30 41-66 1-37-9-64-41-64s-38 30-39 65c0 43 13 65 39 65" id="ai"/><path fill="#333" d="M24-248c93 1 206-16 204 79-1 75-69 88-152 82V0H24v-248zm52 121c47 0 100 7 100-41 0-47-54-39-100-39v80" id="aj"/><g id="e"><use transform="matrix(0.04320987654320988,0,0,0.04320987654320988,0,0)" xlink:href="#ag"/><use transform="matrix(0.04320987654320988,0,0,0.04320987654320988,9.462962962962964,0)" xlink:href="#R"/><use transform="matrix(0.04320987654320988,0,0,0.04320987654320988,18.925925925925927,0)" xlink:href="#ah"/><use transform="matrix(0.04320987654320988,0,0,0.04320987654320988,23.246913580246915,0)" xlink:href="#S"/><use transform="matrix(0.04320987654320988,0,0,0.04320987654320988,32.70987654320988,0)" xlink:href="#U"/><use transform="matrix(0.04320987654320988,0,0,0.04320987654320988,41.351851851851855,0)" xlink:href="#ai"/><use transform="matrix(0.04320987654320988,0,0,0.04320987654320988,50.81481481481482,0)" xlink:href="#aj"/><use transform="matrix(0.04320987654320988,0,0,0.04320987654320988,61.18518518518519,0)" xlink:href="#ae"/><use transform="matrix(0.04320987654320988,0,0,0.04320987654320988,70.64814814814815,0)" xlink:href="#S"/><use transform="matrix(0.04320987654320988,0,0,0.04320987654320988,80.11111111111111,0)" xlink:href="#O"/><use transform="matrix(0.04320987654320988,0,0,0.04320987654320988,85.25308641975309,0)" xlink:href="#S"/><use transform="matrix(0.04320987654320988,0,0,0.04320987654320988,94.71604938271606,0)" xlink:href="#P"/><use transform="matrix(0.04320987654320988,0,0,0.04320987654320988,99.85802469135804,0)" xlink:href="#R"/><use transform="matrix(0.04320987654320988,0,0,0.04320987654320988,109.32098765432097,0)" xlink:href="#ae"/><use transform="matrix(0.04320987654320988,0,0,0.04320987654320988,118.78395061728395,0)" xlink:href="#S"/><use transform="matrix(0.04320987654320988,0,0,0.04320987654320988,128.2469135802469,0)" xlink:href="#O"/><use transform="matrix(0.04320987654320988,0,0,0.04320987654320988,133.38888888888889,0)" xlink:href="#S"/><use transform="matrix(0.04320987654320988,0,0,0.04320987654320988,142.85185185185185,0)" xlink:href="#W"/></g><path fill="#333" d="M135-194c87-1 58 113 63 194h-50c-7-57 23-157-34-157-59 0-34 97-39 157H25l-1-190h47c2 12-1 28 3 38 12-26 28-41 61-42" id="ak"/><g id="f"><use transform="matrix(0.04320987654320988,0,0,0.04320987654320988,0,0)" xlink:href="#Z"/><use transform="matrix(0.04320987654320988,0,0,0.04320987654320988,8.641975308641976,0)" xlink:href="#ae"/><use transform="matrix(0.04320987654320988,0,0,0.04320987654320988,18.10493827160494,0)" xlink:href="#S"/><use transform="matrix(0.04320987654320988,0,0,0.04320987654320988,27.567901234567906,0)" xlink:href="#af"/><use transform="matrix(0.04320987654320988,0,0,0.04320987654320988,39.66666666666667,0)" xlink:href="#P"/><use transform="matrix(0.04320987654320988,0,0,0.04320987654320988,44.808641975308646,0)" xlink:href="#ah"/><use transform="matrix(0.04320987654320988,0,0,0.04320987654320988,49.12962962962963,0)" xlink:href="#ac"/><use transform="matrix(0.04320987654320988,0,0,0.04320987654320988,53.45061728395062,0)" xlink:href="#ab"/><use transform="matrix(0.04320987654320988,0,0,0.04320987654320988,62.0925925925926,0)" xlink:href="#N"/><use transform="matrix(0.04320987654320988,0,0,0.04320987654320988,70.73456790123457,0)" xlink:href="#ak"/><use transform="matrix(0.04320987654320988,0,0,0.04320987654320988,80.19753086419753,0)" xlink:href="#Z"/><use transform="matrix(0.04320987654320988,0,0,0.04320987654320988,88.83950617283952,0)" xlink:href="#N"/><use transform="matrix(0.04320987654320988,0,0,0.04320987654320988,97.48148148148147,0)" xlink:href="#aj"/><use transform="matrix(0.04320987654320988,0,0,0.04320987654320988,107.85185185185185,0)" xlink:href="#ah"/><use transform="matrix(0.04320987654320988,0,0,0.04320987654320988,112.17283950617283,0)" xlink:href="#U"/><use transform="matrix(0.04320987654320988,0,0,0.04320987654320988,120.81481481481481,0)" xlink:href="#O"/><use transform="matrix(0.04320987654320988,0,0,0.04320987654320988,125.95679012345678,0)" xlink:href="#N"/><use transform="matrix(0.04320987654320988,0,0,0.04320987654320988,134.59876543209876,0)" xlink:href="#W"/></g><path fill="#333" d="M199 0l-22-63H83L61 0H9l90-248h61L250 0h-51zm-33-102l-36-108c-10 38-24 72-36 108h72" id="al"/><g id="g"><use transform="matrix(0.04320987654320988,0,0,0.04320987654320988,0,0)" xlink:href="#al"/><use transform="matrix(0.04320987654320988,0,0,0.04320987654320988,11.19135802469136,0)" xlink:href="#ah"/><use transform="matrix(0.04320987654320988,0,0,0.04320987654320988,15.512345679012347,0)" xlink:href="#O"/><use transform="matrix(0.04320987654320988,0,0,0.04320987654320988,20.654320987654323,0)" xlink:href="#N"/><use transform="matrix(0.04320987654320988,0,0,0.04320987654320988,29.296296296296298,0)" xlink:href="#Q"/><use transform="matrix(0.04320987654320988,0,0,0.04320987654320988,35.345679012345684,0)" xlink:href="#ak"/><use transform="matrix(0.04320987654320988,0,0,0.04320987654320988,44.808641975308646,0)" xlink:href="#U"/><use transform="matrix(0.04320987654320988,0,0,0.04320987654320988,53.45061728395062,0)" xlink:href="#O"/><use transform="matrix(0.04320987654320988,0,0,0.04320987654320988,58.592592592592595,0)" xlink:href="#ac"/><use transform="matrix(0.04320987654320988,0,0,0.04320987654320988,62.91358024691359,0)" xlink:href="#ad"/><use transform="matrix(0.04320987654320988,0,0,0.04320987654320988,71.55555555555556,0)" xlink:href="#N"/></g><path fill="#333" d="M20 75v-336h95v34H67V41h48v34H20" id="am"/><g id="h"><use transform="matrix(0.04320987654320988,0,0,0.04320987654320988,0,0)" xlink:href="#am"/><use transform="matrix(0.04320987654320988,0,0,0.04320987654320988,5.1419753086419755,0)" xlink:href="#ah"/><use transform="matrix(0.04320987654320988,0,0,0.04320987654320988,9.462962962962964,0)" xlink:href="#ac"/><use transform="matrix(0.04320987654320988,0,0,0.04320987654320988,13.783950617283953,0)" xlink:href="#ab"/><use transform="matrix(0.04320987654320988,0,0,0.04320987654320988,22.425925925925934,0)" xlink:href="#N"/><use transform="matrix(0.04320987654320988,0,0,0.04320987654320988,31.067901234567906,0)" xlink:href="#ak"/><use transform="matrix(0.04320987654320988,0,0,0.04320987654320988,40.53086419753087,0)" xlink:href="#Z"/><use transform="matrix(0.04320987654320988,0,0,0.04320987654320988,49.17283950617284,0)" xlink:href="#N"/></g><path fill="#333" d="M123 10C108 53 80 86 19 72V37c35 8 53-11 59-39L3-190h52l48 148c12-52 28-100 44-148h51" id="an"/><g id="i"><use transform="matrix(0.04320987654320988,0,0,0.04320987654320988,0,0)" xlink:href="#R"/><use transform="matrix(0.04320987654320988,0,0,0.04320987654320988,9.462962962962964,0)" xlink:href="#ah"/><use transform="matrix(0.04320987654320988,0,0,0.04320987654320988,13.783950617283953,0)" xlink:href="#U"/><use transform="matrix(0.04320987654320988,0,0,0.04320987654320988,22.425925925925934,0)" xlink:href="#an"/><use transform="matrix(0.04320987654320988,0,0,0.04320987654320988,31.067901234567906,0)" xlink:href="#N"/><use transform="matrix(0.04320987654320988,0,0,0.04320987654320988,39.70987654320988,0)" xlink:href="#Q"/></g><g id="j"><use transform="matrix(0.04320987654320988,0,0,0.04320987654320988,0,0)" xlink:href="#af"/><use transform="matrix(0.04320987654320988,0,0,0.04320987654320988,12.098765432098766,0)" xlink:href="#U"/><use transform="matrix(0.04320987654320988,0,0,0.04320987654320988,20.74074074074074,0)" xlink:href="#Z"/></g><g id="k"><use transform="matrix(0.04320987654320988,0,0,0.04320987654320988,0,0)" xlink:href="#ak"/><use transform="matrix(0.04320987654320988,0,0,0.04320987654320988,9.462962962962964,0)" xlink:href="#S"/><use transform="matrix(0.04320987654320988,0,0,0.04320987654320988,18.925925925925927,0)" xlink:href="#O"/></g><g id="l"><use transform="matrix(0.04320987654320988,0,0,0.04320987654320988,0,0)" xlink:href="#ab"/><use transform="matrix(0.04320987654320988,0,0,0.04320987654320988,8.641975308641976,0)" xlink:href="#S"/><use transform="matrix(0.04320987654320988,0,0,0.04320987654320988,18.10493827160494,0)" xlink:href="#Q"/><use transform="matrix(0.04320987654320988,0,0,0.04320987654320988,24.154320987654323,0)" xlink:href="#Q"/><use transform="matrix(0.04320987654320988,0,0,0.04320987654320988,30.203703703703706,0)" xlink:href="#N"/><use transform="matrix(0.04320987654320988,0,0,0.04320987654320988,38.845679012345684,0)" xlink:href="#ab"/><use transform="matrix(0.04320987654320988,0,0,0.04320987654320988,47.48765432098766,0)" xlink:href="#O"/><use transform="matrix(0.04320987654320988,0,0,0.04320987654320988,52.62962962962963,0)" xlink:href="#ah"/><use transform="matrix(0.04320987654320988,0,0,0.04320987654320988,56.95061728395062,0)" xlink:href="#an"/></g><path fill="#333" d="M12 0v-35l95-120H19v-35h142v35L67-36h103V0H12" id="ao"/><path fill="#333" d="M4 75V41h49v-268H4v-34h96V75H4" id="ap"/><g id="m"><use transform="matrix(0.04320987654320988,0,0,0.04320987654320988,0,0)" xlink:href="#Q"/><use transform="matrix(0.04320987654320988,0,0,0.04320987654320988,6.049382716049383,0)" xlink:href="#N"/><use transform="matrix(0.04320987654320988,0,0,0.04320987654320988,14.69135802469136,0)" xlink:href="#ab"/><use transform="matrix(0.04320987654320988,0,0,0.04320987654320988,23.333333333333336,0)" xlink:href="#S"/><use transform="matrix(0.04320987654320988,0,0,0.04320987654320988,32.7962962962963,0)" xlink:href="#M"/><use transform="matrix(0.04320987654320988,0,0,0.04320987654320988,42.25925925925926,0)" xlink:href="#ak"/><use transform="matrix(0.04320987654320988,0,0,0.04320987654320988,51.722222222222214,0)" xlink:href="#ac"/><use transform="matrix(0.04320987654320988,0,0,0.04320987654320988,56.04320987654321,0)" xlink:href="#ao"/><use transform="matrix(0.04320987654320988,0,0,0.04320987654320988,63.82098765432099,0)" xlink:href="#N"/><use transform="matrix(0.04320987654320988,0,0,0.04320987654320988,72.46296296296296,0)" xlink:href="#ai"/><use transform="matrix(0.04320987654320988,0,0,0.04320987654320988,81.92592592592592,0)" xlink:href="#ap"/></g><g id="n"><use transform="matrix(0.04320987654320988,0,0,0.04320987654320988,0,0)" xlink:href="#R"/><use transform="matrix(0.04320987654320988,0,0,0.04320987654320988,9.462962962962964,0)" xlink:href="#ah"/><use transform="matrix(0.04320987654320988,0,0,0.04320987654320988,13.783950617283953,0)" xlink:href="#U"/><use transform="matrix(0.04320987654320988,0,0,0.04320987654320988,22.425925925925934,0)" xlink:href="#O"/><use transform="matrix(0.04320987654320988,0,0,0.04320987654320988,27.567901234567906,0)" xlink:href="#N"/></g><g id="o"><use transform="matrix(0.04320987654320988,0,0,0.04320987654320988,0,0)" xlink:href="#af"/><use transform="matrix(0.04320987654320988,0,0,0.04320987654320988,12.098765432098766,0)" xlink:href="#U"/><use transform="matrix(0.04320987654320988,0,0,0.04320987654320988,20.74074074074074,0)" xlink:href="#Z"/></g><path fill="#333" d="M24 0v-248h52v208h133V0H24" id="aq"/><g id="p"><use transform="matrix(0.04320987654320988,0,0,0.04320987654320988,0,0)" xlink:href="#Y"/><use transform="matrix(0.04320987654320988,0,0,0.04320987654320988,5.1419753086419755,0)" xlink:href="#ac"/><use transform="matrix(0.04320987654320988,0,0,0.04320987654320988,9.462962962962964,0)" xlink:href="#ah"/><use transform="matrix(0.04320987654320988,0,0,0.04320987654320988,13.783950617283953,0)" xlink:href="#ah"/><use transform="matrix(0.04320987654320988,0,0,0.04320987654320988,18.10493827160494,0)" xlink:href="#aq"/><use transform="matrix(0.04320987654320988,0,0,0.04320987654320988,27.567901234567906,0)" xlink:href="#ac"/><use transform="matrix(0.04320987654320988,0,0,0.04320987654320988,31.888888888888893,0)" xlink:href="#ab"/><use transform="matrix(0.04320987654320988,0,0,0.04320987654320988,40.53086419753087,0)" xlink:href="#N"/><use transform="matrix(0.04320987654320988,0,0,0.04320987654320988,49.17283950617284,0)" xlink:href="#ak"/><use transform="matrix(0.04320987654320988,0,0,0.04320987654320988,58.63580246913581,0)" xlink:href="#Z"/><use transform="matrix(0.04320987654320988,0,0,0.04320987654320988,67.27777777777779,0)" xlink:href="#N"/><use transform="matrix(0.04320987654320988,0,0,0.04320987654320988,75.91975308641976,0)" xlink:href="#aj"/><use transform="matrix(0.04320987654320988,0,0,0.04320987654320988,86.29012345679013,0)" xlink:href="#ah"/><use transform="matrix(0.04320987654320988,0,0,0.04320987654320988,90.61111111111111,0)" xlink:href="#U"/><use transform="matrix(0.04320987654320988,0,0,0.04320987654320988,99.2530864197531,0)" xlink:href="#O"/><use transform="matrix(0.04320987654320988,0,0,0.04320987654320988,104.39506172839508,0)" xlink:href="#N"/><use transform="matrix(0.04320987654320988,0,0,0.04320987654320988,113.03703703703702,0)" xlink:href="#P"/><use transform="matrix(0.04320987654320988,0,0,0.04320987654320988,118.179012345679,0)" xlink:href="#ah"/><use transform="matrix(0.04320987654320988,0,0,0.04320987654320988,122.5,0)" xlink:href="#ac"/><use transform="matrix(0.04320987654320988,0,0,0.04320987654320988,126.82098765432099,0)" xlink:href="#ab"/><use transform="matrix(0.04320987654320988,0,0,0.04320987654320988,135.46296296296296,0)" xlink:href="#N"/><use transform="matrix(0.04320987654320988,0,0,0.04320987654320988,144.10493827160494,0)" xlink:href="#ak"/><use transform="matrix(0.04320987654320988,0,0,0.04320987654320988,153.5679012345679,0)" xlink:href="#Z"/><use transform="matrix(0.04320987654320988,0,0,0.04320987654320988,162.20987654320987,0)" xlink:href="#N"/><use transform="matrix(0.04320987654320988,0,0,0.04320987654320988,170.85185185185185,0)" xlink:href="#aj"/><use transform="matrix(0.04320987654320988,0,0,0.04320987654320988,181.22222222222223,0)" xlink:href="#ah"/><use transform="matrix(0.04320987654320988,0,0,0.04320987654320988,185.54320987654322,0)" xlink:href="#U"/><use transform="matrix(0.04320987654320988,0,0,0.04320987654320988,194.18518518518522,0)" xlink:href="#O"/><use transform="matrix(0.04320987654320988,0,0,0.04320987654320988,199.3271604938272,0)" xlink:href="#N"/><use transform="matrix(0.04320987654320988,0,0,0.04320987654320988,207.96913580246917,0)" xlink:href="#W"/></g><path fill="#333" d="M76-208v77h127v40H76V0H24v-248h183v40H76" id="ar"/><path fill="#333" d="M220-157c-53 9-28 100-34 157h-49v-107c1-27-5-49-29-50C55-147 81-57 75 0H25l-1-190h47c2 12-1 28 3 38 10-53 101-56 108 0 13-22 24-43 59-42 82 1 51 116 57 194h-49v-107c-1-25-5-48-29-50" id="as"/><g id="q"><use transform="matrix(0.04320987654320988,0,0,0.04320987654320988,0,0)" xlink:href="#Y"/><use transform="matrix(0.04320987654320988,0,0,0.04320987654320988,5.1419753086419755,0)" xlink:href="#ag"/><use transform="matrix(0.04320987654320988,0,0,0.04320987654320988,14.60493827160494,0)" xlink:href="#ah"/><use transform="matrix(0.04320987654320988,0,0,0.04320987654320988,18.925925925925927,0)" xlink:href="#ah"/><use transform="matrix(0.04320987654320988,0,0,0.04320987654320988,23.246913580246915,0)" xlink:href="#ar"/><use transform="matrix(0.04320987654320988,0,0,0.04320987654320988,32.70987654320988,0)" xlink:href="#ac"/><use transform="matrix(0.04320987654320988,0,0,0.04320987654320988,37.03086419753087,0)" xlink:href="#ah"/><use transform="matrix(0.04320987654320988,0,0,0.04320987654320988,41.351851851851855,0)" xlink:href="#ah"/><use transform="matrix(0.04320987654320988,0,0,0.04320987654320988,45.67283950617284,0)" xlink:href="#P"/><use transform="matrix(0.04320987654320988,0,0,0.04320987654320988,50.81481481481482,0)" xlink:href="#Q"/><use transform="matrix(0.04320987654320988,0,0,0.04320987654320988,56.8641975308642,0)" xlink:href="#N"/><use transform="matrix(0.04320987654320988,0,0,0.04320987654320988,65.50617283950618,0)" xlink:href="#R"/><use transform="matrix(0.04320987654320988,0,0,0.04320987654320988,74.96913580246914,0)" xlink:href="#S"/><use transform="matrix(0.04320987654320988,0,0,0.04320987654320988,84.4320987654321,0)" xlink:href="#Q"/><use transform="matrix(0.04320987654320988,0,0,0.04320987654320988,90.48148148148147,0)" xlink:href="#O"/><use transform="matrix(0.04320987654320988,0,0,0.04320987654320988,95.62345679012344,0)" xlink:href="#ar"/><use transform="matrix(0.04320987654320988,0,0,0.04320987654320988,105.08641975308642,0)" xlink:href="#S"/><use transform="matrix(0.04320987654320988,0,0,0.04320987654320988,114.54938271604938,0)" xlink:href="#Q"/><use transform="matrix(0.04320987654320988,0,0,0.04320987654320988,120.59876543209876,0)" xlink:href="#as"/><use transform="matrix(0.04320987654320988,0,0,0.04320987654320988,134.42592592592592,0)" xlink:href="#W"/></g><g id="r"><use transform="matrix(0.04320987654320988,0,0,0.04320987654320988,0,0)" xlink:href="#Z"/><use transform="matrix(0.04320987654320988,0,0,0.04320987654320988,8.641975308641976,0)" xlink:href="#N"/><use transform="matrix(0.04320987654320988,0,0,0.04320987654320988,17.283950617283953,0)" xlink:href="#ak"/><use transform="matrix(0.04320987654320988,0,0,0.04320987654320988,26.746913580246915,0)" xlink:href="#ai"/><use transform="matrix(0.04320987654320988,0,0,0.04320987654320988,36.20987654320988,0)" xlink:href="#P"/><use transform="matrix(0.04320987654320988,0,0,0.04320987654320988,41.351851851851855,0)" xlink:href="#Q"/><use transform="matrix(0.04320987654320988,0,0,0.04320987654320988,47.40123456790124,0)" xlink:href="#N"/><use transform="matrix(0.04320987654320988,0,0,0.04320987654320988,56.043209876543216,0)" xlink:href="#R"/><use transform="matrix(0.04320987654320988,0,0,0.04320987654320988,65.50617283950618,0)" xlink:href="#S"/><use transform="matrix(0.04320987654320988,0,0,0.04320987654320988,74.96913580246914,0)" xlink:href="#Q"/><use transform="matrix(0.04320987654320988,0,0,0.04320987654320988,81.01851851851852,0)" xlink:href="#O"/><use transform="matrix(0.04320987654320988,0,0,0.04320987654320988,86.1604938271605,0)" xlink:href="#ar"/><use transform="matrix(0.04320987654320988,0,0,0.04320987654320988,95.62345679012344,0)" xlink:href="#S"/><use transform="matrix(0.04320987654320988,0,0,0.04320987654320988,105.08641975308642,0)" xlink:href="#Q"/><use transform="matrix(0.04320987654320988,0,0,0.04320987654320988,111.1358024691358,0)" xlink:href="#as"/><use transform="matrix(0.04320987654320988,0,0,0.04320987654320988,124.96296296296296,0)" xlink:href="#W"/></g><g id="s"><use transform="matrix(0.04320987654320988,0,0,0.04320987654320988,0,0)" xlink:href="#Z"/><use transform="matrix(0.04320987654320988,0,0,0.04320987654320988,8.641975308641976,0)" xlink:href="#O"/><use transform="matrix(0.04320987654320988,0,0,0.04320987654320988,13.783950617283953,0)" xlink:href="#S"/><use transform="matrix(0.04320987654320988,0,0,0.04320987654320988,23.246913580246915,0)" xlink:href="#Q"/><use transform="matrix(0.04320987654320988,0,0,0.04320987654320988,29.296296296296298,0)" xlink:href="#N"/><use transform="matrix(0.04320987654320988,0,0,0.04320987654320988,37.93827160493828,0)" xlink:href="#aa"/><use transform="matrix(0.04320987654320988,0,0,0.04320987654320988,49.12962962962965,0)" xlink:href="#N"/><use transform="matrix(0.04320987654320988,0,0,0.04320987654320988,57.77160493827161,0)" xlink:href="#R"/><use transform="matrix(0.04320987654320988,0,0,0.04320987654320988,67.23456790123458,0)" xlink:href="#S"/><use transform="matrix(0.04320987654320988,0,0,0.04320987654320988,76.69753086419755,0)" xlink:href="#Q"/><use transform="matrix(0.04320987654320988,0,0,0.04320987654320988,82.74691358024693,0)" xlink:href="#O"/><use transform="matrix(0.04320987654320988,0,0,0.04320987654320988,87.8888888888889,0)" xlink:href="#P"/><use transform="matrix(0.04320987654320988,0,0,0.04320987654320988,93.03086419753087,0)" xlink:href="#Q"/><use transform="matrix(0.04320987654320988,0,0,0.04320987654320988,99.08024691358025,0)" xlink:href="#N"/><use transform="matrix(0.04320987654320988,0,0,0.04320987654320988,107.72222222222223,0)" xlink:href="#R"/><use transform="matrix(0.04320987654320988,0,0,0.04320987654320988,117.18518518518519,0)" xlink:href="#S"/><use transform="matrix(0.04320987654320988,0,0,0.04320987654320988,126.64814814814817,0)" xlink:href="#Q"/><use transform="matrix(0.04320987654320988,0,0,0.04320987654320988,132.69753086419755,0)" xlink:href="#O"/><use transform="matrix(0.04320987654320988,0,0,0.04320987654320988,137.83950617283952,0)" xlink:href="#ar"/><use transform="matrix(0.04320987654320988,0,0,0.04320987654320988,147.30246913580248,0)" xlink:href="#S"/><use transform="matrix(0.04320987654320988,0,0,0.04320987654320988,156.76543209876544,0)" xlink:href="#Q"/><use transform="matrix(0.04320987654320988,0,0,0.04320987654320988,162.81481481481484,0)" xlink:href="#as"/><use transform="matrix(0.04320987654320988,0,0,0.04320987654320988,176.641975308642,0)" xlink:href="#W"/></g><path fill="#333" d="M140-251c80 0 125 45 125 126S219 4 139 4C58 4 15-44 15-125s44-126 125-126zm-1 214c52 0 73-35 73-88 0-50-21-86-72-86-52 0-73 35-73 86s22 88 72 88" id="at"/><path fill="#333" d="M238-95c0 69-44 99-111 99C63 4 22-25 22-93v-155h51v151c-1 38 19 59 55 60 90 1 49-130 58-211h52v153" id="au"/><path fill="#333" d="M67-125c0 53 21 87 73 88 37 1 54-22 65-47l45 17C233-25 199 4 140 4 58 4 20-42 15-125 8-235 124-281 211-232c18 10 29 29 36 50l-46 12c-8-25-30-41-62-41-52 0-71 34-72 86" id="av"/><path fill="#333" d="M24 0v-248h195v40H76v63h132v40H76v65h150V0H24" id="aw"/><g id="t"><use transform="matrix(0.04320987654320988,0,0,0.04320987654320988,0,0)" xlink:href="#ak"/><use transform="matrix(0.04320987654320988,0,0,0.04320987654320988,9.462962962962964,0)" xlink:href="#S"/><use transform="matrix(0.04320987654320988,0,0,0.04320987654320988,18.925925925925927,0)" xlink:href="#O"/><use transform="matrix(0.04320987654320988,0,0,0.04320987654320988,24.067901234567906,0)" xlink:href="#ac"/><use transform="matrix(0.04320987654320988,0,0,0.04320987654320988,28.388888888888886,0)" xlink:href="#Y"/><use transform="matrix(0.04320987654320988,0,0,0.04320987654320988,33.53086419753087,0)" xlink:href="#an"/><use transform="matrix(0.04320987654320988,0,0,0.04320987654320988,42.17283950617284,0)" xlink:href="#at"/><use transform="matrix(0.04320987654320988,0,0,0.04320987654320988,54.27160493827161,0)" xlink:href="#R"/><use transform="matrix(0.04320987654320988,0,0,0.04320987654320988,63.73456790123458,0)" xlink:href="#N"/><use transform="matrix(0.04320987654320988,0,0,0.04320987654320988,72.37654320987654,0)" xlink:href="#Q"/><use transform="matrix(0.04320987654320988,0,0,0.04320987654320988,78.42592592592592,0)" xlink:href="#U"/><use transform="matrix(0.04320987654320988,0,0,0.04320987654320988,87.0679012345679,0)" xlink:href="#O"/><use transform="matrix(0.04320987654320988,0,0,0.04320987654320988,92.20987654320987,0)" xlink:href="#ac"/><use transform="matrix(0.04320987654320988,0,0,0.04320987654320988,96.53086419753086,0)" xlink:href="#S"/><use transform="matrix(0.04320987654320988,0,0,0.04320987654320988,105.99382716049382,0)" xlink:href="#ak"/><use transform="matrix(0.04320987654320988,0,0,0.04320987654320988,115.45679012345678,0)" xlink:href="#aa"/><use transform="matrix(0.04320987654320988,0,0,0.04320987654320988,126.64814814814814,0)" xlink:href="#N"/><use transform="matrix(0.04320987654320988,0,0,0.04320987654320988,135.29012345679013,0)" xlink:href="#Z"/><use transform="matrix(0.04320987654320988,0,0,0.04320987654320988,143.9320987654321,0)" xlink:href="#ag"/><use transform="matrix(0.04320987654320988,0,0,0.04320987654320988,153.39506172839506,0)" xlink:href="#ah"/><use transform="matrix(0.04320987654320988,0,0,0.04320987654320988,157.71604938271605,0)" xlink:href="#O"/><use transform="matrix(0.04320987654320988,0,0,0.04320987654320988,162.85802469135803,0)" xlink:href="#P"/><use transform="matrix(0.04320987654320988,0,0,0.04320987654320988,168,0)" xlink:href="#X"/><use transform="matrix(0.04320987654320988,0,0,0.04320987654320988,178.37037037037038,0)" xlink:href="#au"/><use transform="matrix(0.04320987654320988,0,0,0.04320987654320988,189.56172839506175,0)" xlink:href="#av"/><use transform="matrix(0.04320987654320988,0,0,0.04320987654320988,200.75308641975312,0)" xlink:href="#av"/><use transform="matrix(0.04320987654320988,0,0,0.04320987654320988,211.94444444444446,0)" xlink:href="#aw"/><use transform="matrix(0.04320987654320988,0,0,0.04320987654320988,222.31481481481487,0)" xlink:href="#X"/><use transform="matrix(0.04320987654320988,0,0,0.04320987654320988,232.68518518518525,0)" xlink:href="#X"/><use transform="matrix(0.04320987654320988,0,0,0.04320987654320988,243.05555555555563,0)" xlink:href="#W"/></g><g id="u"><use transform="matrix(0.04320987654320988,0,0,0.04320987654320988,0,0)" xlink:href="#ai"/><use transform="matrix(0.04320987654320988,0,0,0.04320987654320988,9.462962962962964,0)" xlink:href="#S"/><use transform="matrix(0.04320987654320988,0,0,0.04320987654320988,18.925925925925927,0)" xlink:href="#as"/><use transform="matrix(0.04320987654320988,0,0,0.04320987654320988,32.75308641975309,0)" xlink:href="#U"/><use transform="matrix(0.04320987654320988,0,0,0.04320987654320988,41.39506172839506,0)" xlink:href="#ac"/><use transform="matrix(0.04320987654320988,0,0,0.04320987654320988,45.71604938271605,0)" xlink:href="#ak"/></g><g id="v"><use transform="matrix(0.04320987654320988,0,0,0.04320987654320988,0,0)" xlink:href="#U"/><use transform="matrix(0.04320987654320988,0,0,0.04320987654320988,8.641975308641976,0)" xlink:href="#Z"/><use transform="matrix(0.04320987654320988,0,0,0.04320987654320988,17.283950617283953,0)" xlink:href="#Z"/><use transform="matrix(0.04320987654320988,0,0,0.04320987654320988,25.925925925925927,0)" xlink:href="#ag"/><use transform="matrix(0.04320987654320988,0,0,0.04320987654320988,35.38888888888889,0)" xlink:href="#as"/><use transform="matrix(0.04320987654320988,0,0,0.04320987654320988,49.21604938271606,0)" xlink:href="#R"/><use transform="matrix(0.04320987654320988,0,0,0.04320987654320988,58.679012345679006,0)" xlink:href="#O"/><use transform="matrix(0.04320987654320988,0,0,0.04320987654320988,63.82098765432099,0)" xlink:href="#ac"/><use transform="matrix(0.04320987654320988,0,0,0.04320987654320988,68.14197530864197,0)" xlink:href="#S"/><use transform="matrix(0.04320987654320988,0,0,0.04320987654320988,77.60493827160494,0)" xlink:href="#ak"/></g><g id="w"><use transform="matrix(0.04320987654320988,0,0,0.04320987654320988,0,0)" xlink:href="#S"/><use transform="matrix(0.04320987654320988,0,0,0.04320987654320988,9.462962962962964,0)" xlink:href="#ak"/></g><path fill="#333" d="M67-125c0 54 23 88 75 88 28 0 53-7 68-21v-34h-60v-39h108v91C232-14 192 4 140 4 58 4 20-42 15-125 8-236 126-280 215-234c19 10 29 26 37 47l-47 15c-11-23-29-39-63-39-53 1-75 33-75 86" id="ax"/><g id="x"><use transform="matrix(0.04320987654320988,0,0,0.04320987654320988,0,0)" xlink:href="#ax"/><use transform="matrix(0.04320987654320988,0,0,0.04320987654320988,12.098765432098766,0)" xlink:href="#aj"/><use transform="matrix(0.04320987654320988,0,0,0.04320987654320988,22.46913580246914,0)" xlink:href="#X"/></g><g id="y"><use transform="matrix(0.04320987654320988,0,0,0.04320987654320988,0,0)" xlink:href="#Z"/><use transform="matrix(0.04320987654320988,0,0,0.04320987654320988,8.641975308641976,0)" xlink:href="#ae"/><use transform="matrix(0.04320987654320988,0,0,0.04320987654320988,18.10493827160494,0)" xlink:href="#S"/><use transform="matrix(0.04320987654320988,0,0,0.04320987654320988,27.567901234567906,0)" xlink:href="#ag"/><use transform="matrix(0.04320987654320988,0,0,0.04320987654320988,37.03086419753087,0)" xlink:href="#ah"/><use transform="matrix(0.04320987654320988,0,0,0.04320987654320988,41.351851851851855,0)" xlink:href="#ai"/></g><g id="z"><use transform="matrix(0.04320987654320988,0,0,0.04320987654320988,0,0)" xlink:href="#V"/><use transform="matrix(0.04320987654320988,0,0,0.04320987654320988,9.462962962962964,0)" xlink:href="#N"/></g><path fill="#333" d="M76-54c-1 42 2 86-19 110H24C36 42 46 24 48 0H25v-54h51" id="ay"/><g id="A"><use transform="matrix(0.04320987654320988,0,0,0.04320987654320988,0,0)" xlink:href="#ad"/><use transform="matrix(0.04320987654320988,0,0,0.04320987654320988,8.641975308641976,0)" xlink:href="#U"/><use transform="matrix(0.04320987654320988,0,0,0.04320987654320988,17.283950617283953,0)" xlink:href="#ah"/><use transform="matrix(0.04320987654320988,0,0,0.04320987654320988,21.60493827160494,0)" xlink:href="#ac"/><use transform="matrix(0.04320987654320988,0,0,0.04320987654320988,25.925925925925927,0)" xlink:href="#ai"/><use transform="matrix(0.04320987654320988,0,0,0.04320987654320988,35.38888888888889,0)" xlink:href="#ay"/></g><g id="B"><use transform="matrix(0.04320987654320988,0,0,0.04320987654320988,0,0)" xlink:href="#Z"/><use transform="matrix(0.04320987654320988,0,0,0.04320987654320988,8.641975308641976,0)" xlink:href="#S"/></g><g id="C"><use transform="matrix(0.04320987654320988,0,0,0.04320987654320988,0,0)" xlink:href="#ak"/><use transform="matrix(0.04320987654320988,0,0,0.04320987654320988,9.462962962962964,0)" xlink:href="#S"/></g><g id="D"><use transform="matrix(0.04320987654320988,0,0,0.04320987654320988,0,0)" xlink:href="#ab"/><use transform="matrix(0.04320987654320988,0,0,0.04320987654320988,8.641975308641976,0)" xlink:href="#S"/><use transform="matrix(0.04320987654320988,0,0,0.04320987654320988,18.10493827160494,0)" xlink:href="#ak"/><use transform="matrix(0.04320987654320988,0,0,0.04320987654320988,27.567901234567906,0)" xlink:href="#O"/><use transform="matrix(0.04320987654320988,0,0,0.04320987654320988,32.70987654320988,0)" xlink:href="#Q"/><use transform="matrix(0.04320987654320988,0,0,0.04320987654320988,38.75925925925927,0)" xlink:href="#S"/><use transform="matrix(0.04320987654320988,0,0,0.04320987654320988,48.22222222222223,0)" xlink:href="#ah"/></g><g id="E"><use transform="matrix(0.04320987654320988,0,0,0.04320987654320988,0,0)" xlink:href="#Z"/><use transform="matrix(0.04320987654320988,0,0,0.04320987654320988,8.641975308641976,0)" xlink:href="#ae"/><use transform="matrix(0.04320987654320988,0,0,0.04320987654320988,18.10493827160494,0)" xlink:href="#S"/><use transform="matrix(0.04320987654320988,0,0,0.04320987654320988,27.567901234567906,0)" xlink:href="#ag"/><use transform="matrix(0.04320987654320988,0,0,0.04320987654320988,37.03086419753087,0)" xlink:href="#ah"/><use transform="matrix(0.04320987654320988,0,0,0.04320987654320988,41.351851851851855,0)" xlink:href="#ai"/></g><g id="F"><use transform="matrix(0.04320987654320988,0,0,0.04320987654320988,0,0)" xlink:href="#U"/><use transform="matrix(0.04320987654320988,0,0,0.04320987654320988,8.641975308641976,0)" xlink:href="#ai"/><use transform="matrix(0.04320987654320988,0,0,0.04320987654320988,18.10493827160494,0)" xlink:href="#ai"/><use transform="matrix(0.04320987654320988,0,0,0.04320987654320988,27.567901234567906,0)" xlink:href="#N"/><use transform="matrix(0.04320987654320988,0,0,0.04320987654320988,36.20987654320988,0)" xlink:href="#ai"/></g><g id="G"><use transform="matrix(0.04320987654320988,0,0,0.04320987654320988,0,0)" xlink:href="#ac"/><use transform="matrix(0.04320987654320988,0,0,0.04320987654320988,4.320987654320988,0)" xlink:href="#ak"/></g><g id="H"><use transform="matrix(0.04320987654320988,0,0,0.04320987654320988,0,0)" xlink:href="#O"/><use transform="matrix(0.04320987654320988,0,0,0.04320987654320988,5.1419753086419755,0)" xlink:href="#ae"/><use transform="matrix(0.04320987654320988,0,0,0.04320987654320988,14.60493827160494,0)" xlink:href="#N"/></g><g id="I"><use transform="matrix(0.04320987654320988,0,0,0.04320987654320988,0,0)" xlink:href="#ag"/><use transform="matrix(0.04320987654320988,0,0,0.04320987654320988,9.462962962962964,0)" xlink:href="#Z"/><use transform="matrix(0.04320987654320988,0,0,0.04320987654320988,18.10493827160494,0)" xlink:href="#N"/></g><g id="J"><use transform="matrix(0.04320987654320988,0,0,0.04320987654320988,0,0)" xlink:href="#ab"/><use transform="matrix(0.04320987654320988,0,0,0.04320987654320988,8.641975308641976,0)" xlink:href="#U"/><use transform="matrix(0.04320987654320988,0,0,0.04320987654320988,17.283950617283953,0)" xlink:href="#Z"/><use transform="matrix(0.04320987654320988,0,0,0.04320987654320988,25.925925925925927,0)" xlink:href="#N"/></g><g id="K"><use transform="matrix(0.04320987654320988,0,0,0.04320987654320988,0,0)" xlink:href="#as"/><use transform="matrix(0.04320987654320988,0,0,0.04320987654320988,13.827160493827162,0)" xlink:href="#N"/><use transform="matrix(0.04320987654320988,0,0,0.04320987654320988,22.46913580246914,0)" xlink:href="#O"/><use transform="matrix(0.04320987654320988,0,0,0.04320987654320988,27.611111111111114,0)" xlink:href="#U"/><use transform="matrix(0.04320987654320988,0,0,0.04320987654320988,36.25308641975309,0)" xlink:href="#ai"/><use transform="matrix(0.04320987654320988,0,0,0.04320987654320988,45.71604938271605,0)" xlink:href="#U"/><use transform="matrix(0.04320987654320988,0,0,0.04320987654320988,54.35802469135802,0)" xlink:href="#O"/><use transform="matrix(0.04320987654320988,0,0,0.04320987654320988,59.49999999999999,0)" xlink:href="#U"/><use transform="matrix(0.04320987654320988,0,0,0.04320987654320988,68.14197530864197,0)" xlink:href="#av"/><use transform="matrix(0.04320987654320988,0,0,0.04320987654320988,79.33333333333333,0)" xlink:href="#S"/><use transform="matrix(0.04320987654320988,0,0,0.04320987654320988,88.79629629629629,0)" xlink:href="#as"/><use transform="matrix(0.04320987654320988,0,0,0.04320987654320988,102.62345679012344,0)" xlink:href="#R"/><use transform="matrix(0.04320987654320988,0,0,0.04320987654320988,112.08641975308642,0)" xlink:href="#ah"/><use transform="matrix(0.04320987654320988,0,0,0.04320987654320988,116.4074074074074,0)" xlink:href="#N"/><use transform="matrix(0.04320987654320988,0,0,0.04320987654320988,125.04938271604938,0)" xlink:href="#O"/><use transform="matrix(0.04320987654320988,0,0,0.04320987654320988,130.19135802469137,0)" xlink:href="#ac"/><use transform="matrix(0.04320987654320988,0,0,0.04320987654320988,134.51234567901236,0)" xlink:href="#S"/><use transform="matrix(0.04320987654320988,0,0,0.04320987654320988,143.97530864197532,0)" xlink:href="#ak"/><use transform="matrix(0.04320987654320988,0,0,0.04320987654320988,153.43827160493828,0)" xlink:href="#P"/><use transform="matrix(0.04320987654320988,0,0,0.04320987654320988,158.58024691358025,0)" xlink:href="#W"/></g><g id="L"><use transform="matrix(0.04320987654320988,0,0,0.04320987654320988,0,0)" xlink:href="#au"/><use transform="matrix(0.04320987654320988,0,0,0.04320987654320988,11.19135802469136,0)" xlink:href="#Z"/><use transform="matrix(0.04320987654320988,0,0,0.04320987654320988,19.833333333333336,0)" xlink:href="#N"/><use transform="matrix(0.04320987654320988,0,0,0.04320987654320988,28.47530864197531,0)" xlink:href="#Q"/></g></defs></g></svg>