<svg xmlns="http://www.w3.org/2000/svg" xmlns:xlink="http://www.w3.org/1999/xlink" xmlns:lucid="lucid" width="1884.21" height="1455.98"><g transform="translate(0 0)" lucid:page-tab-id="0_0"><path d="M0 0h1884.2v1455.98H0z" fill="#fff"/><path d="M606.45 155.04l.47 1176.98" fill="none"/><path d="M606.45 155.04v5.03m0 5.03v10.06m0 5.03v10.05m0 5.03l.02 10.06m0 5.03v10.06m0 5.03v10.06m0 5.03v10.06m.02 5.04v10.06m0 5.03v10.06m0 5.02v10.06m0 5.03v10.07m0 5.03v10.06m.02 5.03v10.05m0 5.03v10.06m0 5.03v10.06m0 5.03l.02 10.06m0 5.03v10.05m0 5.03v10.06m0 5.02l.02 10.06m0 5.03v10.07m0 5.03v10.06m0 5.03l.02 10.05m0 5.03v10.06m0 5.03v10.06m0 5.03v10.06m.02 5.03v10.06m0 5.04v10.06m0 5.03v10.06m0 5.02l.02 10.06m0 5.03v10.07m0 5.03v10.06m0 5.03l.02 10.05m0 5.03v10.06m0 5.03v10.06m0 5.03v10.05m.02 5.04v10.06m0 5.03v10.06m0 5.02v10.06m0 5.03l.02 10.07m0 5.03v10.06m0 5.03v10.05m0 5.03l.02 10.06m0 5.03v10.06m0 5.03v10.06m0 5.03V824m.02 5.04v10.06m0 5.03v10.06m0 5.02v10.06m.02 5.03v10.07m0 5.03v10.06m0 5.03v10.05m0 5.03l.02 10.06m0 5.02v10.06m0 5.03v10.06m0 5.04l.02 10.06m0 5.03V990m0 5.02v10.06m0 5.03v10.07m.02 5.03v10.06m0 5.03v10.05m0 5.03v10.06m0 5.03l.02 10.06m0 5.03v10.06m0 5.03v10.06m0 5.04l.02 10.06m0 5.03v10.06m0 5.02v10.06m0 5.03v10.07m.02 5.03v10.06m0 5.03v10.05m0 5.02v10.06m.02 5.03v10.06m0 5.03v10.06m0 5.04v10.06m0 5.03l.02 10.06m0 5.02v10.06m0 5.03v10.07m0 5.03l.02 10.06m0 5.03v5.02M606.45 155.06v-3.52M606.92 1332v3.52" stroke="#333" fill="none"/><path d="M587.98 275.73c0-4.42 3.58-8 8-8h24c4.42 0 8 3.58 8 8v893.9c0 4.42-3.58 8-8 8h-24c-4.42 0-8-3.58-8-8z" stroke="#f2f2f2" fill="#d2d3d5"/><path d="M1104.1 216.5v1123.8" fill="none"/><path d="M1104.1 216.5v5m0 5v9.98m0 5v10m0 4.98v10m0 5v9.97m0 5v10m0 4.98v10m0 5v10m0 4.98v10m0 4.98v10m0 5v9.98m0 5v9.98m0 5v10m0 4.98v10m0 4.98v10m0 5v9.98m0 5v9.98m0 5v10m0 4.98v10m0 4.98v10m0 5v9.98m0 5v9.98m0 5v10m0 4.98v10m0 4.98v10m0 5v9.98m0 5v9.98m0 5v10m0 4.98v10m0 4.98v10m0 5V671m0 5V686m0 5v9.98m0 5v10m0 4.98v10m0 5v9.98m0 5v9.98m0 5v9.98m0 5v10m0 4.98v10m0 5v9.98m0 5v9.98m0 5v9.98m0 5v10m0 4.98v10m0 5v9.98m0 5v9.98m0 5v9.98m0 5v10m0 4.98v10m0 5v9.98m0 5v9.98m0 5v9.98m0 5v10m0 4.98v10m0 5v9.98m0 5v9.98m0 5v9.98m0 5v10m0 4.98v10m0 5v9.97m0 5v10m0 4.98v10m0 5v10m0 4.98v10m0 5v9.97m0 5v10m0 4.98v10m0 5v9.98m0 5v10m0 4.98v10m0 5v9.98m0 5v9.98m0 5v10m0 4.98v10m0 4.98v5" stroke="#333" fill="none"/><path d="M1104.6 216.52h-1V216h1z" fill="#333"/><path d="M1104.1 1340.3v.5" stroke="#333" fill="none"/><path d="M563.62 1305.98c0-4.42 3.58-8 8-8h70.58c4.42 0 8 3.58 8 8v64c0 4.4-3.58 8-8 8h-70.58c-4.42 0-8-3.6-8-8z" fill="none"/><path d="M572.28 1305.98l69.26 64m0-64l-69.26 64" stroke="#666" stroke-width="8" fill="none"/><path d="M1084.1 335.4c0-4.42 3.58-8 8-8h24c4.42 0 8 3.58 8 8v68.97c0 4.42-3.58 8-8 8h-24c-4.42 0-8-3.58-8-8z" stroke="#f2f2f2" fill="#d2d3d5"/><path d="M628.98 337.73h438.24" stroke="#333" fill="none"/><path d="M629 338.23h-.52v-1h.52zM1081.98 337.73l-14.26 4.64v-9.27z" fill="#333"/><path d="M1083.6 337.73l-16.38 5.33V332.4zm-15.38 3.95l12.14-3.95-12.14-3.94z" fill="#333"/><use xlink:href="#a" transform="matrix(1,0,0,1,810.1315753411619,315.0662167373069) translate(0 12.444444444444446)"/><path d="M1009.06 86c0-4.4 3.6-8 8-8h174.08c4.42 0 8 3.6 8 8v122c0 4.42-3.58 8-8 8h-174.08c-4.4 0-8-3.58-8-8z" stroke="#000" stroke-opacity="0" fill="#ffcc78"/><use xlink:href="#b" transform="matrix(1,0,0,1,1017.0635133462325,86.0042271682712) translate(44.78703703703704 54.77777777777777)"/><use xlink:href="#c" transform="matrix(1,0,0,1,1017.0635133462325,86.0042271682712) translate(-3.3919753086419746 73.44444444444444)"/><path d="M1084 408.02H644.86" fill="none"/><path d="M1084 408.02h-5.07m-5.05 0h-10.1m-5.07 0h-10.1m-5.05 0h-10.12m-5.05 0h-10.1m-5.07 0h-10.1m-5.06 0h-10.1m-5.06 0h-10.1m-5.07 0h-10.1m-5.06 0h-10.1m-5.06 0h-10.1m-5.07 0h-10.1m-5.06 0h-10.1m-5.06 0h-10.12m-5.05 0h-10.1m-5.06 0h-10.1m-5.04 0h-10.07m-5.04 0H821.2m-5.04 0H806.1m-5.04 0H791m-5.05 0h-10.08m-5.04 0h-10.08m-5.03 0h-10.08m-5.04 0h-10.08m-5.04 0H715.4m-5.03 0H700.3m-5.05 0h-10.07m-5.04 0h-10.08m-5.04 0h-10.08m-5.03 0h-5.03" stroke="#333" fill="none"/><path d="M1084.26 407.68l.57.84h-.85v-1h.25zM644.37 412.66l-14.27-4.64 14.27-4.63z" fill="#333"/><path d="M644.87 413.34l-16.4-5.32 16.4-5.32zm-13.15-5.32l12.15 3.95v-7.9z" fill="#333"/><use xlink:href="#d" transform="matrix(1,0,0,1,802.3662426473297,412.02115710150633) translate(0.005000000000002558 12.444444444444446)"/><path d="M623.97 101.63c0 8.83-7.16 16-16 16-8.82 0-15.97-7.17-15.97-16s7.15-15.98 15.98-15.98 16 7.15 16 15.98z" stroke="#333" fill="#ffe6be"/><path d="M607.98 117.62v36.75c0 4.42 2.3 10.76 5.12 14.15l37.5 45m-42.62-51.15l-42.6 51.16m0-79.93h85.22" stroke="#333" fill="none"/><path d="M565.37 93.65c0-4.42 3.58-8 8-8h69.23c4.42 0 8 3.58 8 8v133.88c0 4.4-3.58 8-8 8h-69.23c-4.42 0-8-3.6-8-8z" fill="none"/><use xlink:href="#e" transform="matrix(1,0,0,1,485.3650188838594,213.52623325990706) translate(105.73765432098764 14.11111111111111)"/><path d="M449.64 479.05c0-4.42 3.58-8 8-8h84c4.42 0 8 3.58 8 8v4.93c0 3.9-2.24 9.3-5 12.07-2.76 2.76-8.16 5-12.07 5h-74.93c-4.42 0-8-3.58-8-8z" fill="#ffe6be"/><path d="M549.64 471.05v20l-10 10h-90" stroke="#333" fill="none"/><path d="M449.64 479.05c0-4.42 3.58-8 8-8h990.34c4.42 0 8 3.58 8 8V934.1c0 4.42-3.58 8-8 8H457.64c-4.42 0-8-3.58-8-8z" stroke="#333" fill="none"/><use xlink:href="#f" transform="matrix(1,0,0,1,457.64099076891347,471.0524665198141) translate(24.64506172839506 18.11111111111111)"/><use xlink:href="#g" transform="matrix(1,0,0,1,461.64099076891347,509.0524665198141) translate(10.07716049382715 18.11111111111111)"/><use xlink:href="#h" transform="matrix(1,0,0,1,461.64099076891347,509.0524665198141) translate(33.32407407407406 18.11111111111111)"/><use xlink:href="#i" transform="matrix(1,0,0,1,461.64099076891347,509.0524665198141) translate(69.53395061728395 18.11111111111111)"/><path d="M628.98 506.1h34.5c2.76 0 5 2.23 5 5v55.8c0 2.77-2.24 5-5 5h-18.6" stroke="#333" fill="none"/><path d="M629 506.6h-.52v-1h.52zM644.37 576.55l-14.27-4.64 14.27-4.62z" fill="#333"/><path d="M644.87 577.24l-16.4-5.33 16.4-5.3zm-13.15-5.33l12.15 3.96v-7.9z" fill="#333"/><use xlink:href="#j" transform="matrix(1,0,0,1,676.4830059254888,529.6695800528097) translate(0.0049999999999954525 12.444444444444446)"/><path d="M628.98 337.73h438.24M629 337.73h-.52" stroke="#333" fill="none"/><path d="M1081.98 337.73l-14.26 4.64v-9.27z" stroke="#333" fill="#333"/><use xlink:href="#a" transform="matrix(1,0,0,1,810.1315753411619,315.0662167373069) translate(0 12.444444444444446)"/><path d="M1084.1 634.9c0-4.42 3.58-8 8-8h24c4.42 0 8 3.58 8 8v192.15c0 4.42-3.58 8-8 8h-24c-4.42 0-8-3.58-8-8z" stroke="#f2f2f2" fill="#d2d3d5"/><path d="M628.98 632.65h438.68" stroke="#333" fill="none"/><path d="M629 633.15h-.52v-1h.52zM1082.43 632.65l-14.27 4.63V628z" fill="#333"/><path d="M1084.05 632.65l-16.4 5.32v-10.65zm-15.4 3.94l12.16-3.95-12.14-3.95z" fill="#333"/><use xlink:href="#k" transform="matrix(1,0,0,1,796.3539031613453,609.979973321038) translate(0.005000000000002558 12.444444444444446)"/><path d="M1083.1 820.15h-460" fill="none"/><path d="M1083.1 820.15h-4.96m-4.95 0h-9.93m-4.95 0h-9.92m-4.96 0h-9.9m-4.97 0h-9.9m-4.97 0h-9.9m-4.97 0h-9.9m-4.97 0h-9.92m-4.95 0h-9.93m-4.95 0h-9.92m-4.96 0h-9.9m-4.97 0h-9.9m-4.97 0h-9.9m-4.97 0h-9.9m-4.97 0h-9.92m-4.95 0h-9.93m-4.95 0h-9.9m-4.93 0h-9.88m-4.94 0h-9.87m-4.92 0h-9.87m-4.92 0H781m-4.93 0h-9.87m-4.93 0h-9.87m-4.94 0h-9.87m-4.94 0h-9.87m-4.94 0H707m-4.95 0h-9.87m-4.93 0h-9.87m-4.94 0h-9.87m-4.93 0h-9.87m-4.93 0h-9.87m-4.94 0h-4.93" stroke="#333" fill="none"/><path d="M1083.6 820.65h-.5v-1h.5z" fill="#333"/><path d="M608.33 820.15l14.27-4.64v9.28z" stroke="#333" fill="#333"/><use xlink:href="#l" transform="matrix(1,0,0,1,707.7066897084158,824.1478377113281) translate(0.0049999999999954525 12.444444444444446)"/><path d="M1125.1 670.88h34.5c2.76 0 5 2.24 5 5v34.62c0 2.76-2.24 5-5 5H1141" stroke="#333" fill="none"/><path d="M1125.1 671.38h-.5v-1h.5zM1140.5 720.13l-14.28-4.63 14.27-4.64z" fill="#333"/><path d="M1141 720.82l-16.4-5.32 16.4-5.33zm-13.16-5.32l12.15 3.95v-7.9z" fill="#333"/><use xlink:href="#m" transform="matrix(1,0,0,1,1172.601132411156,683.8562059235654) translate(0.0049999999999954525 12.444444444444446)"/><path d="M342.58 307.76c0-4.42 3.6-8 8-8h84c4.42 0 8 3.58 8 8v4.93c0 3.9-2.23 9.3-5 12.06-2.76 2.76-8.16 5-12.07 5H350.6c-4.4 0-8-3.58-8-8z" fill="#ffe6be"/><path d="M442.58 299.76v20l-10 10h-90" stroke="#333" fill="none"/><path d="M342.58 307.76c0-4.42 3.6-8 8-8H1512.2c4.43 0 8 3.58 8 8v840.46c0 4.42-3.57 8-8 8H350.6c-4.4 0-8-3.58-8-8z" stroke="#333" fill="none"/><g><use xlink:href="#n" transform="matrix(1,0,0,1,350.5836120144103,299.7606605126057) translate(28.96604938271605 18.11111111111111)"/></g><g><use xlink:href="#o" transform="matrix(1,0,0,1,354.5836120144103,337.7606605126057) translate(14.398148148148145 18.11111111111111)"/><use xlink:href="#p" transform="matrix(1,0,0,1,354.5836120144103,337.7606605126057) translate(74.67592592592592 18.11111111111111)"/></g><defs><path fill="#333" d="M195-6C206 82 75 100 31 46c-4-6-6-13-8-21l49-6c3 16 16 24 34 25 40 0 42-37 40-79-11 22-30 35-61 35-53 0-70-43-70-97 0-56 18-96 73-97 30 0 46 14 59 34l2-30h47zm-90-29c32 0 41-27 41-63 0-35-9-62-40-62-32 0-39 29-40 63 0 36 9 62 39 62" id="q"/><path fill="#333" d="M185-48c-13 30-37 53-82 52C43 2 14-33 14-96s30-98 90-98c62 0 83 45 84 108H66c0 31 8 55 39 56 18 0 30-7 34-22zm-45-69c5-46-57-63-70-21-2 6-4 13-4 21h74" id="r"/><path fill="#333" d="M115-3C79 11 28 4 28-45v-112H4v-33h27l15-45h31v45h36v33H77v99c-1 23 16 31 38 25v30" id="s"/><path fill="#333" d="M67-93c0 74 22 123 53 168H70C40 30 18-18 18-93s22-123 52-168h50c-32 44-53 94-53 168" id="t"/><path fill="#333" d="M88-194c31-1 46 15 58 34l-1-101h50l1 261h-48c-2-10 0-23-3-31C134-8 116 4 84 4 32 4 16-41 15-95c0-56 19-97 73-99zm17 164c33 0 40-30 41-66 1-37-9-64-41-64s-38 30-39 65c0 43 13 65 39 65" id="u"/><path fill="#333" d="M133-34C117-15 103 5 69 4 32 3 11-16 11-54c-1-60 55-63 116-61 1-26-3-47-28-47-18 1-26 9-28 27l-52-2c7-38 36-58 82-57s74 22 75 68l1 82c-1 14 12 18 25 15v27c-30 8-71 5-69-32zm-48 3c29 0 43-24 42-57-32 0-66-3-65 30 0 17 8 27 23 27" id="v"/><path fill="#333" d="M136-208V0H84v-208H4v-40h212v40h-80" id="w"/><path fill="#333" d="M135-194c52 0 70 43 70 98 0 56-19 99-73 100-30 1-46-15-58-35L72 0H24l1-261h50v104c11-23 29-37 60-37zM114-30c31 0 40-27 40-66 0-37-7-63-39-63s-41 28-41 65c0 36 8 64 40 64" id="x"/><path fill="#333" d="M102-93c0 74-22 123-52 168H0C30 29 54-18 53-93c0-74-22-123-53-168h50c30 45 52 94 52 168" id="y"/><g id="a"><use transform="matrix(0.04320987654320988,0,0,0.04320987654320988,0,0)" xlink:href="#q"/><use transform="matrix(0.04320987654320988,0,0,0.04320987654320988,9.462962962962964,0)" xlink:href="#r"/><use transform="matrix(0.04320987654320988,0,0,0.04320987654320988,18.10493827160494,0)" xlink:href="#s"/><use transform="matrix(0.04320987654320988,0,0,0.04320987654320988,23.246913580246915,0)" xlink:href="#t"/><use transform="matrix(0.04320987654320988,0,0,0.04320987654320988,28.388888888888886,0)" xlink:href="#u"/><use transform="matrix(0.04320987654320988,0,0,0.04320987654320988,37.851851851851855,0)" xlink:href="#v"/><use transform="matrix(0.04320987654320988,0,0,0.04320987654320988,46.49382716049383,0)" xlink:href="#s"/><use transform="matrix(0.04320987654320988,0,0,0.04320987654320988,51.63580246913581,0)" xlink:href="#v"/><use transform="matrix(0.04320987654320988,0,0,0.04320987654320988,60.27777777777777,0)" xlink:href="#w"/><use transform="matrix(0.04320987654320988,0,0,0.04320987654320988,68.57407407407408,0)" xlink:href="#v"/><use transform="matrix(0.04320987654320988,0,0,0.04320987654320988,77.21604938271605,0)" xlink:href="#x"/><use transform="matrix(0.04320987654320988,0,0,0.04320987654320988,86.67901234567901,0)" xlink:href="#y"/></g><path fill="#333" d="M169-182c-1-43-94-46-97-3 18 66 151 10 154 114 3 95-165 93-204 36-6-8-10-19-12-30l50-8c3 46 112 56 116 5-17-69-150-10-154-114-4-87 153-88 188-35 5 8 8 18 10 28" id="z"/><path fill="#333" d="M121-226c-27-7-43 5-38 36h38v33H83V0H34v-157H6v-33h28c-9-59 32-81 87-68v32" id="A"/><path fill="#333" d="M135-150c-39-12-60 13-60 57V0H25l-1-190h47c2 13-1 29 3 40 6-28 27-53 61-41v41" id="B"/><path fill="#333" d="M137-138c1-29-70-34-71-4 15 46 118 7 119 86 1 83-164 76-172 9l43-7c4 19 20 25 44 25 33 8 57-30 24-41C81-84 22-81 20-136c-2-80 154-74 161-7" id="C"/><g id="b"><use transform="matrix(0.04320987654320988,0,0,0.04320987654320988,0,0)" xlink:href="#z"/><use transform="matrix(0.04320987654320988,0,0,0.04320987654320988,10.370370370370372,0)" xlink:href="#v"/><use transform="matrix(0.04320987654320988,0,0,0.04320987654320988,19.01234567901235,0)" xlink:href="#A"/><use transform="matrix(0.04320987654320988,0,0,0.04320987654320988,24.154320987654323,0)" xlink:href="#r"/><use transform="matrix(0.04320987654320988,0,0,0.04320987654320988,32.7962962962963,0)" xlink:href="#z"/><use transform="matrix(0.04320987654320988,0,0,0.04320987654320988,43.16666666666667,0)" xlink:href="#s"/><use transform="matrix(0.04320987654320988,0,0,0.04320987654320988,48.308641975308646,0)" xlink:href="#B"/><use transform="matrix(0.04320987654320988,0,0,0.04320987654320988,54.35802469135802,0)" xlink:href="#r"/><use transform="matrix(0.04320987654320988,0,0,0.04320987654320988,63,0)" xlink:href="#r"/><use transform="matrix(0.04320987654320988,0,0,0.04320987654320988,71.64197530864197,0)" xlink:href="#s"/><use transform="matrix(0.04320987654320988,0,0,0.04320987654320988,76.78395061728395,0)" xlink:href="#C"/></g><path fill="#333" d="M240-174c0 40-23 61-54 70L253 0h-59l-57-94H76V0H24v-248c93 4 217-23 216 74zM76-134c48-2 112 12 112-38 0-48-66-32-112-35v73" id="D"/><path fill="#333" d="M84 4C32 4 15-41 15-95c0-55 18-99 73-99 29 0 47 12 58 34l2-30h48l-1 265h-49V-32C136-9 114 4 84 4zm21-34c32 0 41-29 41-66 0-36-9-64-40-64-33 0-39 30-40 65 0 43 13 65 39 65" id="E"/><path fill="#333" d="M85 4C-2 5 27-109 22-190h50c7 57-23 150 33 157 60-5 35-97 40-157h50l1 190h-47c-2-12 1-28-3-38-12 25-28 42-61 42" id="F"/><path fill="#333" d="M199 0l-22-63H83L61 0H9l90-248h61L250 0h-51zm-33-102l-36-108c-10 38-24 72-36 108h72" id="G"/><path fill="#333" d="M24-248c120-7 223 5 221 122C244-46 201 0 124 0H24v-248zM76-40c74 7 117-18 117-86 0-67-45-88-117-82v168" id="H"/><g id="c"><use transform="matrix(0.04320987654320988,0,0,0.04320987654320988,0,0)" xlink:href="#t"/><use transform="matrix(0.04320987654320988,0,0,0.04320987654320988,5.1419753086419755,0)" xlink:href="#D"/><use transform="matrix(0.04320987654320988,0,0,0.04320987654320988,16.333333333333336,0)" xlink:href="#r"/><use transform="matrix(0.04320987654320988,0,0,0.04320987654320988,24.97530864197531,0)" xlink:href="#E"/><use transform="matrix(0.04320987654320988,0,0,0.04320987654320988,34.43827160493827,0)" xlink:href="#F"/><use transform="matrix(0.04320987654320988,0,0,0.04320987654320988,43.901234567901234,0)" xlink:href="#r"/><use transform="matrix(0.04320987654320988,0,0,0.04320987654320988,52.54320987654321,0)" xlink:href="#C"/><use transform="matrix(0.04320987654320988,0,0,0.04320987654320988,61.18518518518518,0)" xlink:href="#s"/><use transform="matrix(0.04320987654320988,0,0,0.04320987654320988,66.32716049382717,0)" xlink:href="#G"/><use transform="matrix(0.04320987654320988,0,0,0.04320987654320988,77.51851851851852,0)" xlink:href="#q"/><use transform="matrix(0.04320987654320988,0,0,0.04320987654320988,86.98148148148148,0)" xlink:href="#q"/><use transform="matrix(0.04320987654320988,0,0,0.04320987654320988,96.44444444444443,0)" xlink:href="#B"/><use transform="matrix(0.04320987654320988,0,0,0.04320987654320988,102.49382716049382,0)" xlink:href="#r"/><use transform="matrix(0.04320987654320988,0,0,0.04320987654320988,111.1358024691358,0)" xlink:href="#q"/><use transform="matrix(0.04320987654320988,0,0,0.04320987654320988,120.59876543209876,0)" xlink:href="#v"/><use transform="matrix(0.04320987654320988,0,0,0.04320987654320988,129.24074074074073,0)" xlink:href="#s"/><use transform="matrix(0.04320987654320988,0,0,0.04320987654320988,134.3827160493827,0)" xlink:href="#r"/><use transform="matrix(0.04320987654320988,0,0,0.04320987654320988,143.02469135802468,0)" xlink:href="#H"/><use transform="matrix(0.04320987654320988,0,0,0.04320987654320988,154.21604938271605,0)" xlink:href="#v"/><use transform="matrix(0.04320987654320988,0,0,0.04320987654320988,162.85802469135803,0)" xlink:href="#s"/><use transform="matrix(0.04320987654320988,0,0,0.04320987654320988,168,0)" xlink:href="#v"/><use transform="matrix(0.04320987654320988,0,0,0.04320987654320988,176.64197530864197,0)" xlink:href="#y"/></g><path fill="#333" d="M114-157C55-157 80-60 75 0H25v-261h50l-1 109c12-26 28-41 61-42 86-1 58 113 63 194h-50c-7-57 23-157-34-157" id="I"/><path fill="#333" d="M110-194c64 0 96 36 96 99 0 64-35 99-97 99-61 0-95-36-95-99 0-62 34-99 96-99zm-1 164c35 0 45-28 45-65 0-40-10-65-43-65-34 0-45 26-45 65 0 36 10 65 43 65" id="J"/><path fill="#333" d="M231 0h-52l-39-155L100 0H48L-1-190h46L77-45c9-52 24-97 36-145h53l37 145 32-145h46" id="K"/><g id="d"><use transform="matrix(0.04320987654320988,0,0,0.04320987654320988,0,0)" xlink:href="#C"/><use transform="matrix(0.04320987654320988,0,0,0.04320987654320988,8.641975308641976,0)" xlink:href="#I"/><use transform="matrix(0.04320987654320988,0,0,0.04320987654320988,18.10493827160494,0)" xlink:href="#J"/><use transform="matrix(0.04320987654320988,0,0,0.04320987654320988,27.567901234567906,0)" xlink:href="#K"/><use transform="matrix(0.04320987654320988,0,0,0.04320987654320988,39.66666666666667,0)" xlink:href="#t"/><use transform="matrix(0.04320987654320988,0,0,0.04320987654320988,44.808641975308646,0)" xlink:href="#u"/><use transform="matrix(0.04320987654320988,0,0,0.04320987654320988,54.27160493827161,0)" xlink:href="#v"/><use transform="matrix(0.04320987654320988,0,0,0.04320987654320988,62.91358024691359,0)" xlink:href="#s"/><use transform="matrix(0.04320987654320988,0,0,0.04320987654320988,68.05555555555556,0)" xlink:href="#v"/><use transform="matrix(0.04320987654320988,0,0,0.04320987654320988,76.69753086419753,0)" xlink:href="#w"/><use transform="matrix(0.04320987654320988,0,0,0.04320987654320988,84.99382716049382,0)" xlink:href="#v"/><use transform="matrix(0.04320987654320988,0,0,0.04320987654320988,93.6358024691358,0)" xlink:href="#x"/><use transform="matrix(0.04320987654320988,0,0,0.04320987654320988,103.09876543209876,0)" xlink:href="#y"/></g><path fill="#333" d="M238-95c0 69-44 99-111 99C63 4 22-25 22-93v-155h51v151c-1 38 19 59 55 60 90 1 49-130 58-211h52v153" id="L"/><g id="e"><use transform="matrix(0.04320987654320988,0,0,0.04320987654320988,0,0)" xlink:href="#L"/><use transform="matrix(0.04320987654320988,0,0,0.04320987654320988,11.19135802469136,0)" xlink:href="#C"/><use transform="matrix(0.04320987654320988,0,0,0.04320987654320988,19.833333333333336,0)" xlink:href="#r"/><use transform="matrix(0.04320987654320988,0,0,0.04320987654320988,28.47530864197531,0)" xlink:href="#B"/></g><path fill="#333" d="M25 0v-261h50V0H25" id="M"/><path fill="#333" d="M135-194c53 0 70 44 70 98 0 56-19 98-73 100-31 1-45-17-59-34 3 33 2 69 2 105H25l-1-265h48c2 10 0 23 3 31 11-24 29-35 60-35zM114-30c33 0 39-31 40-66 0-38-9-64-40-64-56 0-55 130 0 130" id="N"/><g id="f"><use transform="matrix(0.04320987654320988,0,0,0.04320987654320988,0,0)" xlink:href="#M"/><use transform="matrix(0.04320987654320988,0,0,0.04320987654320988,4.320987654320988,0)" xlink:href="#J"/><use transform="matrix(0.04320987654320988,0,0,0.04320987654320988,13.783950617283953,0)" xlink:href="#J"/><use transform="matrix(0.04320987654320988,0,0,0.04320987654320988,23.246913580246915,0)" xlink:href="#N"/></g><path fill="#333" d="M20 75v-336h95v34H67V41h48v34H20" id="O"/><path fill="#333" d="M25-224v-37h50v37H25zM25 0v-190h50V0H25" id="P"/><path fill="#333" d="M135-194c87-1 58 113 63 194h-50c-7-57 23-157-34-157-59 0-34 97-39 157H25l-1-190h47c2 12-1 28 3 38 12-26 28-41 61-42" id="Q"/><g id="g"><use transform="matrix(0.04320987654320988,0,0,0.04320987654320988,0,0)" xlink:href="#O"/><use transform="matrix(0.04320987654320988,0,0,0.04320987654320988,5.1419753086419755,0)" xlink:href="#P"/><use transform="matrix(0.04320987654320988,0,0,0.04320987654320988,9.462962962962964,0)" xlink:href="#Q"/></g><g id="h"><use transform="matrix(0.04320987654320988,0,0,0.04320987654320988,0,0)" xlink:href="#u"/><use transform="matrix(0.04320987654320988,0,0,0.04320987654320988,9.462962962962964,0)" xlink:href="#v"/><use transform="matrix(0.04320987654320988,0,0,0.04320987654320988,18.10493827160494,0)" xlink:href="#s"/><use transform="matrix(0.04320987654320988,0,0,0.04320987654320988,23.246913580246915,0)" xlink:href="#v"/></g><path fill="#333" d="M4 75V41h49v-268H4v-34h96V75H4" id="R"/><g id="i"><use transform="matrix(0.04320987654320988,0,0,0.04320987654320988,0,0)" xlink:href="#s"/><use transform="matrix(0.04320987654320988,0,0,0.04320987654320988,5.1419753086419755,0)" xlink:href="#v"/><use transform="matrix(0.04320987654320988,0,0,0.04320987654320988,13.783950617283953,0)" xlink:href="#x"/><use transform="matrix(0.04320987654320988,0,0,0.04320987654320988,23.246913580246915,0)" xlink:href="#R"/></g><path fill="#333" d="M123 10C108 53 80 86 19 72V37c35 8 53-11 59-39L3-190h52l48 148c12-52 28-100 44-148h51" id="S"/><path fill="#333" d="M76-208v77h127v40H76V0H24v-248h183v40H76" id="T"/><path fill="#333" d="M24 0v-248h52v208h133V0H24" id="U"/><g id="j"><use transform="matrix(0.04320987654320988,0,0,0.04320987654320988,0,0)" xlink:href="#v"/><use transform="matrix(0.04320987654320988,0,0,0.04320987654320988,8.641975308641976,0)" xlink:href="#N"/><use transform="matrix(0.04320987654320988,0,0,0.04320987654320988,18.10493827160494,0)" xlink:href="#N"/><use transform="matrix(0.04320987654320988,0,0,0.04320987654320988,27.567901234567906,0)" xlink:href="#M"/><use transform="matrix(0.04320987654320988,0,0,0.04320987654320988,31.888888888888893,0)" xlink:href="#S"/><use transform="matrix(0.04320987654320988,0,0,0.04320987654320988,40.53086419753087,0)" xlink:href="#T"/><use transform="matrix(0.04320987654320988,0,0,0.04320987654320988,49.99382716049383,0)" xlink:href="#P"/><use transform="matrix(0.04320987654320988,0,0,0.04320987654320988,54.314814814814824,0)" xlink:href="#M"/><use transform="matrix(0.04320987654320988,0,0,0.04320987654320988,58.63580246913581,0)" xlink:href="#s"/><use transform="matrix(0.04320987654320988,0,0,0.04320987654320988,63.77777777777777,0)" xlink:href="#r"/><use transform="matrix(0.04320987654320988,0,0,0.04320987654320988,72.41975308641976,0)" xlink:href="#B"/><use transform="matrix(0.04320987654320988,0,0,0.04320987654320988,78.46913580246914,0)" xlink:href="#t"/><use transform="matrix(0.04320987654320988,0,0,0.04320987654320988,83.61111111111111,0)" xlink:href="#A"/><use transform="matrix(0.04320987654320988,0,0,0.04320987654320988,88.75308641975309,0)" xlink:href="#P"/><use transform="matrix(0.04320987654320988,0,0,0.04320987654320988,93.07407407407409,0)" xlink:href="#M"/><use transform="matrix(0.04320987654320988,0,0,0.04320987654320988,97.39506172839508,0)" xlink:href="#s"/><use transform="matrix(0.04320987654320988,0,0,0.04320987654320988,102.53703703703705,0)" xlink:href="#r"/><use transform="matrix(0.04320987654320988,0,0,0.04320987654320988,111.179012345679,0)" xlink:href="#B"/><use transform="matrix(0.04320987654320988,0,0,0.04320987654320988,117.22839506172839,0)" xlink:href="#U"/><use transform="matrix(0.04320987654320988,0,0,0.04320987654320988,126.69135802469135,0)" xlink:href="#P"/><use transform="matrix(0.04320987654320988,0,0,0.04320987654320988,131.01234567901236,0)" xlink:href="#C"/><use transform="matrix(0.04320987654320988,0,0,0.04320987654320988,139.65432098765433,0)" xlink:href="#s"/><use transform="matrix(0.04320987654320988,0,0,0.04320987654320988,144.7962962962963,0)" xlink:href="#y"/></g><path fill="#333" d="M190-63c-7 42-38 67-86 67-59 0-84-38-90-98-12-110 154-137 174-36l-49 2c-2-19-15-32-35-32-30 0-35 28-38 64-6 74 65 87 74 30" id="V"/><g id="k"><use transform="matrix(0.04320987654320988,0,0,0.04320987654320988,0,0)" xlink:href="#C"/><use transform="matrix(0.04320987654320988,0,0,0.04320987654320988,8.641975308641976,0)" xlink:href="#r"/><use transform="matrix(0.04320987654320988,0,0,0.04320987654320988,17.283950617283953,0)" xlink:href="#M"/><use transform="matrix(0.04320987654320988,0,0,0.04320987654320988,21.60493827160494,0)" xlink:href="#r"/><use transform="matrix(0.04320987654320988,0,0,0.04320987654320988,30.24691358024692,0)" xlink:href="#V"/><use transform="matrix(0.04320987654320988,0,0,0.04320987654320988,38.88888888888889,0)" xlink:href="#s"/><use transform="matrix(0.04320987654320988,0,0,0.04320987654320988,44.03086419753087,0)" xlink:href="#H"/><use transform="matrix(0.04320987654320988,0,0,0.04320987654320988,55.22222222222223,0)" xlink:href="#v"/><use transform="matrix(0.04320987654320988,0,0,0.04320987654320988,63.8641975308642,0)" xlink:href="#s"/><use transform="matrix(0.04320987654320988,0,0,0.04320987654320988,69.00617283950618,0)" xlink:href="#v"/><use transform="matrix(0.04320987654320988,0,0,0.04320987654320988,77.64814814814815,0)" xlink:href="#t"/><use transform="matrix(0.04320987654320988,0,0,0.04320987654320988,82.79012345679013,0)" xlink:href="#u"/><use transform="matrix(0.04320987654320988,0,0,0.04320987654320988,92.2530864197531,0)" xlink:href="#v"/><use transform="matrix(0.04320987654320988,0,0,0.04320987654320988,100.89506172839508,0)" xlink:href="#s"/><use transform="matrix(0.04320987654320988,0,0,0.04320987654320988,106.03703703703702,0)" xlink:href="#v"/><use transform="matrix(0.04320987654320988,0,0,0.04320987654320988,114.679012345679,0)" xlink:href="#y"/></g><path fill="#333" d="M182-130c37 4 62 22 62 59C244 23 116-4 24 0v-248c84 5 203-23 205 63 0 31-19 50-47 55zM76-148c40-3 101 13 101-30 0-44-60-28-101-31v61zm0 110c48-3 116 14 116-37 0-48-69-32-116-35v72" id="W"/><path fill="#333" d="M12 0v-35l95-120H19v-35h142v35L67-36h103V0H12" id="X"/><path fill="#333" d="M128 0H69L1-190h53L99-40l48-150h52" id="Y"/><g id="l"><use transform="matrix(0.04320987654320988,0,0,0.04320987654320988,0,0)" xlink:href="#C"/><use transform="matrix(0.04320987654320988,0,0,0.04320987654320988,8.641975308641976,0)" xlink:href="#I"/><use transform="matrix(0.04320987654320988,0,0,0.04320987654320988,18.10493827160494,0)" xlink:href="#J"/><use transform="matrix(0.04320987654320988,0,0,0.04320987654320988,27.567901234567906,0)" xlink:href="#K"/><use transform="matrix(0.04320987654320988,0,0,0.04320987654320988,39.66666666666667,0)" xlink:href="#H"/><use transform="matrix(0.04320987654320988,0,0,0.04320987654320988,50.85802469135803,0)" xlink:href="#v"/><use transform="matrix(0.04320987654320988,0,0,0.04320987654320988,59.50000000000001,0)" xlink:href="#s"/><use transform="matrix(0.04320987654320988,0,0,0.04320987654320988,64.64197530864199,0)" xlink:href="#v"/><use transform="matrix(0.04320987654320988,0,0,0.04320987654320988,73.28395061728396,0)" xlink:href="#t"/><use transform="matrix(0.04320987654320988,0,0,0.04320987654320988,78.42592592592594,0)" xlink:href="#u"/><use transform="matrix(0.04320987654320988,0,0,0.04320987654320988,87.8888888888889,0)" xlink:href="#v"/><use transform="matrix(0.04320987654320988,0,0,0.04320987654320988,96.53086419753087,0)" xlink:href="#s"/><use transform="matrix(0.04320987654320988,0,0,0.04320987654320988,101.67283950617285,0)" xlink:href="#v"/><use transform="matrix(0.04320987654320988,0,0,0.04320987654320988,110.31481481481482,0)" xlink:href="#W"/><use transform="matrix(0.04320987654320988,0,0,0.04320987654320988,121.50617283950619,0)" xlink:href="#S"/><use transform="matrix(0.04320987654320988,0,0,0.04320987654320988,130.14814814814815,0)" xlink:href="#G"/><use transform="matrix(0.04320987654320988,0,0,0.04320987654320988,141.33950617283952,0)" xlink:href="#F"/><use transform="matrix(0.04320987654320988,0,0,0.04320987654320988,150.80246913580248,0)" xlink:href="#s"/><use transform="matrix(0.04320987654320988,0,0,0.04320987654320988,155.94444444444446,0)" xlink:href="#I"/><use transform="matrix(0.04320987654320988,0,0,0.04320987654320988,165.40740740740742,0)" xlink:href="#J"/><use transform="matrix(0.04320987654320988,0,0,0.04320987654320988,174.87037037037038,0)" xlink:href="#B"/><use transform="matrix(0.04320987654320988,0,0,0.04320987654320988,180.91975308641977,0)" xlink:href="#P"/><use transform="matrix(0.04320987654320988,0,0,0.04320987654320988,185.24074074074076,0)" xlink:href="#X"/><use transform="matrix(0.04320987654320988,0,0,0.04320987654320988,193.01851851851853,0)" xlink:href="#v"/><use transform="matrix(0.04320987654320988,0,0,0.04320987654320988,201.6604938271605,0)" xlink:href="#s"/><use transform="matrix(0.04320987654320988,0,0,0.04320987654320988,206.80246913580248,0)" xlink:href="#P"/><use transform="matrix(0.04320987654320988,0,0,0.04320987654320988,211.12345679012347,0)" xlink:href="#J"/><use transform="matrix(0.04320987654320988,0,0,0.04320987654320988,220.58641975308643,0)" xlink:href="#Q"/><use transform="matrix(0.04320987654320988,0,0,0.04320987654320988,230.0493827160494,0)" xlink:href="#U"/><use transform="matrix(0.04320987654320988,0,0,0.04320987654320988,239.51234567901238,0)" xlink:href="#r"/><use transform="matrix(0.04320987654320988,0,0,0.04320987654320988,248.15432098765436,0)" xlink:href="#Y"/><use transform="matrix(0.04320987654320988,0,0,0.04320987654320988,256.7962962962963,0)" xlink:href="#r"/><use transform="matrix(0.04320987654320988,0,0,0.04320987654320988,265.4382716049383,0)" xlink:href="#M"/><use transform="matrix(0.04320987654320988,0,0,0.04320987654320988,269.7592592592593,0)" xlink:href="#y"/></g><g id="m"><use transform="matrix(0.04320987654320988,0,0,0.04320987654320988,0,0)" xlink:href="#q"/><use transform="matrix(0.04320987654320988,0,0,0.04320987654320988,9.462962962962964,0)" xlink:href="#r"/><use transform="matrix(0.04320987654320988,0,0,0.04320987654320988,18.10493827160494,0)" xlink:href="#s"/><use transform="matrix(0.04320987654320988,0,0,0.04320987654320988,23.246913580246915,0)" xlink:href="#G"/><use transform="matrix(0.04320987654320988,0,0,0.04320987654320988,34.43827160493827,0)" xlink:href="#F"/><use transform="matrix(0.04320987654320988,0,0,0.04320987654320988,43.901234567901234,0)" xlink:href="#s"/><use transform="matrix(0.04320987654320988,0,0,0.04320987654320988,49.04320987654321,0)" xlink:href="#I"/><use transform="matrix(0.04320987654320988,0,0,0.04320987654320988,58.50617283950617,0)" xlink:href="#J"/><use transform="matrix(0.04320987654320988,0,0,0.04320987654320988,67.96913580246914,0)" xlink:href="#B"/><use transform="matrix(0.04320987654320988,0,0,0.04320987654320988,74.01851851851852,0)" xlink:href="#P"/><use transform="matrix(0.04320987654320988,0,0,0.04320987654320988,78.3395061728395,0)" xlink:href="#X"/><use transform="matrix(0.04320987654320988,0,0,0.04320987654320988,86.11728395061729,0)" xlink:href="#v"/><use transform="matrix(0.04320987654320988,0,0,0.04320987654320988,94.75925925925927,0)" xlink:href="#s"/><use transform="matrix(0.04320987654320988,0,0,0.04320987654320988,99.90123456790124,0)" xlink:href="#P"/><use transform="matrix(0.04320987654320988,0,0,0.04320987654320988,104.22222222222223,0)" xlink:href="#J"/><use transform="matrix(0.04320987654320988,0,0,0.04320987654320988,113.68518518518519,0)" xlink:href="#Q"/><use transform="matrix(0.04320987654320988,0,0,0.04320987654320988,123.14814814814817,0)" xlink:href="#U"/><use transform="matrix(0.04320987654320988,0,0,0.04320987654320988,132.61111111111111,0)" xlink:href="#r"/><use transform="matrix(0.04320987654320988,0,0,0.04320987654320988,141.2530864197531,0)" xlink:href="#Y"/><use transform="matrix(0.04320987654320988,0,0,0.04320987654320988,149.89506172839506,0)" xlink:href="#r"/><use transform="matrix(0.04320987654320988,0,0,0.04320987654320988,158.53703703703704,0)" xlink:href="#M"/><use transform="matrix(0.04320987654320988,0,0,0.04320987654320988,162.85802469135803,0)" xlink:href="#t"/><use transform="matrix(0.04320987654320988,0,0,0.04320987654320988,168,0)" xlink:href="#F"/><use transform="matrix(0.04320987654320988,0,0,0.04320987654320988,177.46296296296293,0)" xlink:href="#C"/><use transform="matrix(0.04320987654320988,0,0,0.04320987654320988,186.1049382716049,0)" xlink:href="#r"/><use transform="matrix(0.04320987654320988,0,0,0.04320987654320988,194.74691358024688,0)" xlink:href="#B"/><use transform="matrix(0.04320987654320988,0,0,0.04320987654320988,200.7962962962963,0)" xlink:href="#y"/></g><g id="n"><use transform="matrix(0.04320987654320988,0,0,0.04320987654320988,0,0)" xlink:href="#J"/><use transform="matrix(0.04320987654320988,0,0,0.04320987654320988,9.462962962962964,0)" xlink:href="#N"/><use transform="matrix(0.04320987654320988,0,0,0.04320987654320988,18.925925925925927,0)" xlink:href="#s"/></g><g id="o"><use transform="matrix(0.04320987654320988,0,0,0.04320987654320988,0,0)" xlink:href="#O"/><use transform="matrix(0.04320987654320988,0,0,0.04320987654320988,5.1419753086419755,0)" xlink:href="#M"/><use transform="matrix(0.04320987654320988,0,0,0.04320987654320988,9.462962962962964,0)" xlink:href="#J"/><use transform="matrix(0.04320987654320988,0,0,0.04320987654320988,18.925925925925927,0)" xlink:href="#q"/><use transform="matrix(0.04320987654320988,0,0,0.04320987654320988,28.388888888888893,0)" xlink:href="#q"/><use transform="matrix(0.04320987654320988,0,0,0.04320987654320988,37.851851851851855,0)" xlink:href="#r"/><use transform="matrix(0.04320987654320988,0,0,0.04320987654320988,46.49382716049383,0)" xlink:href="#u"/></g><g id="p"><use transform="matrix(0.04320987654320988,0,0,0.04320987654320988,0,0)" xlink:href="#P"/><use transform="matrix(0.04320987654320988,0,0,0.04320987654320988,4.320987654320988,0)" xlink:href="#Q"/><use transform="matrix(0.04320987654320988,0,0,0.04320987654320988,13.783950617283953,0)" xlink:href="#R"/></g></defs></g></svg>